<?xml version="1.0" encoding="UTF-8"?>
<svg width="134px" height="35px" viewBox="0 0 134 35" version="1.1" xmlns="http://www.w3.org/2000/svg" xmlns:xlink="http://www.w3.org/1999/xlink">
    <title>listen-google 2</title>
    <g id="Page-1" stroke="none" stroke-width="1" fill="none" fill-rule="evenodd">
        <g id="listen-google" transform="translate(0.280000, 0.280000)">
            <g id="Rectangle-Solid" fill="#FFFFFF" fill-rule="nonzero" stroke="#9AA0A6" stroke-width="0.56">
                <rect id="Rectangle" x="-9.88086605e-16" y="-1.00821535e-15" width="133" height="34" rx="8.96"></rect>
            </g>
            <g id="logo_podcasts_192px" transform="translate(5.090739, 5.194444)">
                <rect id="Rectangle-path" x="0" y="0" width="24.0297109" height="24.5192308"></rect>
                <path d="M2.37794014,10.0886418 C1.6169993,10.0886418 1.00123796,10.7169471 1.00123796,11.4933894 L1.00123796,13.0258413 C1.00123796,13.8022837 1.6169993,14.4305889 2.37794014,14.4305889 C3.13888099,14.4305889 3.75464233,13.8022837 3.75464233,13.0258413 L3.75464233,11.4933894 C3.75464233,10.7169471 3.13888099,10.0886418 2.37794014,10.0886418 Z" id="Shape" fill="#0066D9" fill-rule="nonzero"></path>
                <path d="M21.6517708,10.0886418 C20.8908299,10.0886418 20.2750686,10.7169471 20.2750686,11.4933894 L20.2750686,13.0258413 C20.2750686,13.8022837 20.8908299,14.4305889 21.6517708,14.4305889 C22.4127116,14.4305889 23.028473,13.8022837 23.028473,13.0258413 L23.028473,11.4933894 C23.028473,10.7169471 22.4127116,10.0886418 21.6517708,10.0886418 Z" id="Shape" fill="#4285F4" fill-rule="nonzero"></path>
                <path d="M7.13382043,14.6859976 C6.37287958,14.6859976 5.75711824,15.3143029 5.75711824,16.0907452 L5.75711824,17.6231971 C5.75711824,18.3996394 6.37287958,19.0279447 7.13382043,19.0279447 C7.89476128,19.0279447 8.51052262,18.3996394 8.51052262,17.6231971 L8.51052262,16.0907452 C8.51052262,15.3143029 7.89476128,14.6859976 7.13382043,14.6859976 Z" id="Shape" fill="#EA4335" fill-rule="nonzero"></path>
                <path d="M7.13382043,5.49128606 C6.37287958,5.49128606 5.75711824,6.11959135 5.75711824,6.89603365 L5.75711824,11.9084284 L5.75836979,11.9084284 C5.77589145,12.6695462 6.38414351,13.28125 7.13382043,13.28125 C7.88349735,13.28125 8.49174941,12.6695462 8.50927107,11.9084284 L8.51052262,11.9084284 L8.51052262,6.89603365 C8.51052262,6.11959135 7.89476128,5.49128606 7.13382043,5.49128606 Z" id="Shape" fill="#EA4335" fill-rule="nonzero"></path>
                <path d="M16.8958905,5.49128606 C16.1349496,5.49128606 15.5191883,6.11959135 15.5191883,6.89603365 L15.5191883,8.42848558 C15.5191883,9.20492788 16.1349496,9.83323317 16.8958905,9.83323317 C17.6568313,9.83323317 18.2725927,9.20492788 18.2725927,8.42848558 L18.2725927,6.89603365 C18.2725927,6.11959135 17.6568313,5.49128606 16.8958905,5.49128606 Z" id="Shape" fill="#34A853" fill-rule="nonzero"></path>
                <path d="M12.0148555,1.02163462 C11.2539146,1.02163462 10.6381533,1.6499399 10.6381533,2.42638221 L10.6381533,3.95883413 C10.6381533,4.73527644 11.2539146,5.36358173 12.0148555,5.36358173 C12.7757963,5.36358173 13.3915576,4.73527644 13.3915576,3.95883413 L13.3915576,2.42638221 C13.3915576,1.6499399 12.7757963,1.02163462 12.0148555,1.02163462 Z" id="Shape" fill="#FAB908" fill-rule="nonzero"></path>
                <path d="M12.0148555,19.155649 C11.2539146,19.155649 10.6381533,19.7839543 10.6381533,20.5603966 L10.6381533,22.0928486 C10.6381533,22.8692909 11.2539146,23.4975962 12.0148555,23.4975962 C12.7757963,23.4975962 13.3915576,22.8692909 13.3915576,22.0928486 L13.3915576,20.5603966 C13.3915576,19.7839543 12.7757963,19.155649 12.0148555,19.155649 Z" id="Shape" fill="#FAB908" fill-rule="nonzero"></path>
                <path d="M16.8958905,11.2379808 C16.1349496,11.2379808 15.5191883,11.8662861 15.5191883,12.6427284 L15.5191883,17.6231971 C15.5191883,18.3996394 16.1349496,19.0279447 16.8958905,19.0279447 C17.6568313,19.0279447 18.2725927,18.3996394 18.2725927,17.6231971 L18.2725927,12.6427284 C18.2725927,11.8662861 17.6568313,11.2379808 16.8958905,11.2379808 Z" id="Shape" fill="#34A853" fill-rule="nonzero"></path>
                <path d="M13.3915576,8.17307692 C13.3915576,7.39663462 12.7757963,6.76832933 12.0148555,6.76832933 C11.2539146,6.76832933 10.6381533,7.39663462 10.6381533,8.17307692 L10.6381533,8.17307692 L10.6381533,11.5789513 L10.6381533,12.9415565 L10.6381533,16.3461538 L10.6381533,16.3461538 C10.6381533,17.1225962 11.2539146,17.7509014 12.0148555,17.7509014 C12.7757963,17.7509014 13.3915576,17.1225962 13.3915576,16.3461538 L13.3915576,16.3461538 L13.3915576,12.9402795 L13.3915576,11.5789513 L13.3915576,8.17307692 L13.3915576,8.17307692 Z" id="Shape" fill="#FAB908" fill-rule="nonzero"></path>
            </g>
            <g id="Group" transform="translate(34.460385, 15.896130)">
                <polygon id="Rectangle-path" points="0 0.413698959 90.7077088 0.413698959 90.7077088 14.6530152 0 14.6530152"></polygon>
                <path d="M44.805621,10.2395537 L44.805621,6.5271605 L46.7618175,6.5271605 C47.2602115,6.5271605 47.7212259,6.41273742 48.1448608,6.18389127 C48.5684957,5.95504511 48.9069883,5.63508429 49.1603386,5.22400879 C49.4136889,4.81293329 49.540364,4.34888414 49.540364,3.83186135 C49.540364,3.31483856 49.4136889,2.85078942 49.1603386,2.43971392 C48.9069883,2.02863842 48.5684957,1.70867759 48.1448608,1.47983144 C47.7212259,1.25098528 47.2602115,1.13656221 46.7618175,1.13656221 L46.7618175,1.13656221 L43.7589936,1.13656221 L43.7589936,10.2395537 L44.805621,10.2395537 Z M46.7867372,5.49735281 L44.805621,5.49735281 L44.805621,2.1663699 L46.7867372,2.1663699 C47.1189998,2.1663699 47.4118063,2.24688985 47.6651566,2.40792973 C47.9185069,2.56896961 48.1157878,2.77662631 48.2569995,3.03089981 C48.3982111,3.28517332 48.4688169,3.5521605 48.4688169,3.83186135 C48.4688169,4.11156221 48.3982111,4.37854939 48.2569995,4.63282289 C48.1157878,4.8870964 47.9185069,5.09475309 47.6651566,5.25579298 C47.4118063,5.41683286 47.1189998,5.49735281 46.7867372,5.49735281 L46.7867372,5.49735281 Z M53.0415819,10.4429725 C53.6645744,10.4429725 54.2252677,10.2904084 54.7236617,9.98528016 C55.2220557,9.68015195 55.6103876,9.26483859 55.8886577,8.73933999 C56.1669277,8.21384138 56.3060626,7.63325024 56.3060626,6.99756648 C56.3060626,6.36188272 56.1669277,5.78129156 55.8886577,5.25579298 C55.6103876,4.7302944 55.2220557,4.31498101 54.7236617,4.00985281 C54.2252677,3.7047246 53.6645744,3.5521605 53.0415819,3.5521605 C52.4185894,3.5521605 51.8578961,3.7047246 51.3595021,4.00985281 C50.8611081,4.31498101 50.4727762,4.7302944 50.1945062,5.25579298 C49.9162361,5.78129156 49.7771012,6.36188272 49.7771012,6.99756648 C49.7771012,7.63325024 49.9162361,8.21384138 50.1945062,8.73933999 C50.4727762,9.26483859 50.8611081,9.68015195 51.3595021,9.98528016 C51.8578961,10.2904084 52.4185894,10.4429725 53.0415819,10.4429725 Z M53.0415819,9.46401947 C52.6511732,9.46401947 52.2856844,9.36442899 51.9451151,9.1652481 C51.6045458,8.96606722 51.3325058,8.68000953 51.1289949,8.30707503 C50.925484,7.93414052 50.8237286,7.49763774 50.8237286,6.99756648 C50.8237286,6.49749525 50.925484,6.06099241 51.1289949,5.68805793 C51.3325058,5.31512346 51.6045458,5.02906577 51.9451151,4.82988486 C52.2856844,4.63070395 52.6511732,4.53111349 53.0415819,4.53111349 C53.4319906,4.53111349 53.7954028,4.63070395 54.1318188,4.82988486 C54.4682347,5.02906577 54.7381981,5.31512346 54.941709,5.68805793 C55.14522,6.06099241 55.2469754,6.49749525 55.2469754,6.99756648 C55.2469754,7.49763774 55.14522,7.93414052 54.941709,8.30707503 C54.7381981,8.68000953 54.4682347,8.96606722 54.1318188,9.1652481 C53.7954028,9.36442899 53.4319906,9.46401947 53.0415819,9.46401947 Z M60.0564775,10.4429725 C60.546565,10.4429725 60.9826597,10.3306683 61.3647618,10.1060601 C61.7468638,9.88145184 62.0375937,9.60810782 62.2369513,9.28602802 L62.2369513,9.28602802 L62.2867907,9.28602802 L62.2867907,10.2395537 L63.2960385,10.2395537 L63.2960385,1.13656221 L62.2369513,1.13656221 L62.2369513,3.81914768 L62.2867907,4.72181862 L62.2369513,4.72181862 C62.0375937,4.39126306 61.7468638,4.11368115 61.3647618,3.88907289 C60.9826597,3.66446463 60.546565,3.5521605 60.0564775,3.5521605 C59.4916309,3.5521605 58.9787005,3.70048671 58.517686,3.99713913 C58.0566716,4.29379156 57.6932593,4.70486705 57.4274491,5.23036563 C57.161639,5.7558642 57.0287339,6.34493115 57.0287339,6.99756648 C57.0287339,7.65867759 57.161639,8.24986349 57.4274491,8.77112417 C57.6932593,9.29238486 58.0566716,9.70134138 58.517686,9.99799383 C58.9787005,10.2946463 59.4916309,10.4429725 60.0564775,10.4429725 Z M60.181076,9.46401947 C59.8155871,9.46401947 59.4708646,9.36231007 59.1469085,9.15889127 C58.8229524,8.95547246 58.5633721,8.66517685 58.3681678,8.28800451 C58.1729635,7.91083218 58.0753613,7.48068614 58.0753613,6.99756648 C58.0753613,6.51444682 58.1729635,6.08430081 58.3681678,5.70712845 C58.5633721,5.32995608 58.8229524,5.0396605 59.1469085,4.83624169 C59.4708646,4.63282289 59.8155871,4.53111349 60.181076,4.53111349 C60.5548715,4.53111349 60.9016707,4.63282289 61.2214735,4.83624169 C61.5412763,5.0396605 61.7987799,5.32783713 61.9939842,5.70077161 C62.1891885,6.07370608 62.2867907,6.50597104 62.2867907,6.99756648 C62.2867907,7.48916189 62.1891885,7.92142685 61.9939842,8.29436135 C61.7987799,8.66729586 61.5412763,8.95547246 61.2214735,9.15889127 C60.9016707,9.36231007 60.5548715,9.46401947 60.181076,9.46401947 Z M67.5074679,10.4429725 C68.1886063,10.4429725 68.7679894,10.2776947 69.245617,9.94713913 C69.7232446,9.61658357 70.0700437,9.18431862 70.2860145,8.65034426 L70.2860145,8.65034426 L69.3390658,8.24350665 C69.1812411,8.63339266 68.9403506,8.93428304 68.6163945,9.14617759 C68.2924384,9.35807215 67.9061831,9.46401947 67.4576285,9.46401947 C67.083833,9.46401947 66.7349572,9.36019115 66.4110011,9.15253443 C66.087045,8.9448777 65.8274647,8.65458218 65.6322604,8.28164768 C65.4370562,7.90871317 65.339454,7.48068614 65.339454,6.99756648 C65.339454,6.51444682 65.4370562,6.08641976 65.6322604,5.71348528 C65.8274647,5.34055081 66.087045,5.05025523 66.4110011,4.84259853 C66.7349572,4.63494183 67.083833,4.53111349 67.4576285,4.53111349 C67.8978765,4.53111349 68.2737487,4.63494183 68.5852449,4.84259853 C68.8967412,5.05025523 69.1314017,5.35326448 69.2892264,5.75162631 L69.2892264,5.75162631 L70.2486349,5.3447887 C70.0492773,4.80233856 69.714938,4.36795465 69.245617,4.04163699 C68.776296,3.71531933 68.1969129,3.5521605 67.5074679,3.5521605 C66.8927819,3.5521605 66.3403953,3.70048671 65.8503078,3.99713913 C65.3602203,4.29379156 64.9781183,4.70486705 64.7040016,5.23036563 C64.4298849,5.7558642 64.2928266,6.34493115 64.2928266,6.99756648 C64.2928266,7.65020184 64.4298849,8.23714981 64.7040016,8.7584105 C64.9781183,9.27967118 65.3602203,9.69074671 65.8503078,9.99163699 C66.3403953,10.2925273 66.8927819,10.4429725 67.5074679,10.4429725 Z M73.2265391,10.4429725 C73.6834002,10.4429725 74.0945753,10.3327873 74.4600642,10.1124169 C74.8255532,9.89204651 75.0996699,9.62505933 75.2824143,9.31145537 L75.2824143,9.31145537 L75.3322537,9.31145537 L75.3322537,10.2395537 L76.3415016,10.2395537 L76.3415016,6.13303657 C76.3415016,5.33631292 76.0943812,4.706986 75.6001405,4.2450558 C75.1058998,3.78312559 74.426838,3.5521605 73.562955,3.5521605 C73.0313348,3.5521605 72.5474772,3.66234568 72.1113825,3.88271605 C71.6752877,4.10308643 71.3326419,4.40821463 71.0834449,4.79810067 L71.0834449,4.79810067 L71.8808753,5.40835708 C72.0553132,5.12865622 72.2920503,4.9104048 72.5910867,4.75360281 C72.8901231,4.59680081 73.2182325,4.51839981 73.5754149,4.51839981 C74.0821154,4.51839981 74.5015971,4.66460708 74.8338597,4.95702161 C75.1661224,5.24943614 75.3322537,5.63720323 75.3322537,6.12032289 L75.3322537,6.12032289 L75.3322537,6.51444682 C75.1578158,6.40426164 74.9065422,6.30679012 74.5784328,6.22203229 C74.2503234,6.13727446 73.8952177,6.09489554 73.5131156,6.09489554 C72.7406049,6.09489554 72.1009993,6.28771961 71.5942987,6.67336776 C71.0875982,7.05901594 70.8342479,7.59510922 70.8342479,8.28164768 C70.8342479,8.69696104 70.9339267,9.06777663 71.1332843,9.39409426 C71.3326419,9.72041189 71.6150651,9.9768044 71.9805541,10.1632716 C72.346043,10.3497388 72.7613713,10.4429725 73.2265391,10.4429725 Z M73.3262179,9.48944682 C72.9191961,9.48944682 72.5827802,9.37926167 72.31697,9.15889127 C72.0511599,8.93852087 71.9182548,8.65034426 71.9182548,8.29436135 C71.9182548,7.90447534 72.0656964,7.58663346 72.3605795,7.34083571 C72.6554626,7.09503796 73.093634,6.97213913 73.6750937,6.97213913 C73.9990498,6.97213913 74.3063927,7.01451808 74.5971226,7.09927588 C74.8878525,7.18403369 75.1328961,7.29421893 75.3322537,7.42983144 C75.3322537,7.80276594 75.2408815,8.14603517 75.058137,8.45963913 C74.8753926,8.77324309 74.6303488,9.02327876 74.3230059,9.20974597 C74.0156629,9.39621317 73.6834002,9.48944682 73.3262179,9.48944682 Z M79.7928801,10.4429725 C80.2580479,10.4429725 80.6816828,10.3624525 81.0637848,10.2014126 C81.4458869,10.0403728 81.7490766,9.80940762 81.9733539,9.50851734 C82.1976312,9.20762705 82.3097698,8.85800098 82.3097698,8.45963913 C82.3097698,8.00194682 82.1519451,7.61417973 81.8362955,7.29633785 C81.520646,6.97849597 81.0513249,6.73905505 80.4283324,6.5780152 L80.4283324,6.5780152 L79.5063035,6.33645537 C79.1408147,6.24322175 78.866698,6.12244183 78.6839534,5.97411563 C78.501209,5.82578942 78.4098367,5.63296534 78.4098367,5.3956434 C78.4098367,5.1413699 78.5406651,4.93159426 78.802322,4.76631648 C79.0639789,4.6010387 79.3692452,4.51839981 79.718121,4.51839981 C80.4407923,4.51839981 80.9433396,4.80657645 81.2257628,5.38292973 L81.2257628,5.38292973 L82.1477918,4.95066477 C81.9650473,4.50992403 81.6556277,4.1666548 81.2195329,3.92085708 C80.7834382,3.67505936 80.2871209,3.5521605 79.7305808,3.5521605 C79.3069459,3.5521605 78.912384,3.62844255 78.5468951,3.78100665 C78.1814062,3.93357075 77.8885997,4.15182218 77.6684756,4.43576093 C77.4483517,4.71969967 77.3382896,5.04813628 77.3382896,5.42107075 C77.3382896,5.90419041 77.5002677,6.29831434 77.8242238,6.60344255 C78.1481799,6.90857075 78.5635082,7.12470323 79.0702088,7.25183999 L79.0702088,7.25183999 L79.8427195,7.45525879 C80.3245004,7.57391979 80.6775294,7.71588913 80.9018067,7.88116691 C81.126084,8.04644469 81.2382227,8.26469608 81.2382227,8.53592118 C81.2382227,8.84104939 81.0970111,9.07625238 80.8145878,9.24153016 C80.5321646,9.40680793 80.1915953,9.48944682 79.7928801,9.48944682 C79.4190846,9.48944682 79.0764387,9.3834995 78.7649425,9.17160494 C78.4534462,8.95971039 78.2187857,8.65882001 78.0609609,8.268934 L78.0609609,8.268934 L77.1140123,8.70119896 C77.3050634,9.20974597 77.6290195,9.62717833 78.0858806,9.95349597 C78.5427419,10.2798136 79.1117416,10.4429725 79.7928801,10.4429725 Z M85.6739293,10.3412631 C85.8732869,10.3412631 86.0373417,10.3285494 86.1660934,10.303122 C86.2948452,10.2776947 86.4215203,10.2353157 86.5461188,10.1759853 L86.5461188,10.1759853 L86.5461188,9.12075024 C86.3218415,9.26483859 86.0892577,9.33688272 85.8483672,9.33688272 C85.5493308,9.33688272 85.3209003,9.24364907 85.1630755,9.05718187 C85.0301704,8.88766617 84.9637179,8.62491691 84.9637179,8.268934 L84.9637179,8.268934 L84.9637179,4.73453229 L86.5087393,4.73453229 L86.5087393,3.7555793 L84.9637179,3.7555793 L84.9637179,1.92481007 L83.9046306,1.92481007 L83.9046306,3.7555793 L82.795704,3.7555793 L82.795704,4.73453229 L83.9046306,4.73453229 L83.9046306,8.53592118 C83.9046306,8.84104939 83.9461635,9.09956081 84.0292291,9.31145537 C84.1122948,9.52334993 84.2368933,9.70981722 84.4030246,9.87085708 C84.5525428,10.0149454 84.737364,10.1293685 84.957488,10.2141263 C85.177612,10.2988841 85.4164258,10.3412631 85.6739293,10.3412631 Z M89.9601178,10.4429725 C90.4252858,10.4429725 90.8489207,10.3624525 91.2310225,10.2014126 C91.6131243,10.0403728 91.9163142,9.80940762 92.1405915,9.50851734 C92.3648688,9.20762705 92.4770075,8.85800098 92.4770075,8.45963913 C92.4770075,8.00194682 92.319183,7.61417973 92.0035332,7.29633785 C91.6878834,6.97849597 91.2185626,6.73905505 90.5955701,6.5780152 L90.5955701,6.5780152 L89.6735412,6.33645537 C89.308052,6.24322175 89.0339353,6.12244183 88.8511911,5.97411563 C88.6684467,5.82578942 88.5770744,5.63296534 88.5770744,5.3956434 C88.5770744,5.1413699 88.7079028,4.93159426 88.9695597,4.76631648 C89.2312165,4.6010387 89.5364829,4.51839981 89.8853587,4.51839981 C90.60803,4.51839981 91.1105776,4.80657645 91.3930005,5.38292973 L91.3930005,5.38292973 L92.3150294,4.95066477 C92.1322853,4.50992403 91.8228654,4.1666548 91.3867706,3.92085708 C90.9506759,3.67505936 90.4543582,3.5521605 89.8978185,3.5521605 C89.4741836,3.5521605 89.079622,3.62844255 88.7141328,3.78100665 C88.3486439,3.93357075 88.0558374,4.15182218 87.8357133,4.43576093 C87.6155893,4.71969967 87.5055273,5.04813628 87.5055273,5.42107075 C87.5055273,5.90419041 87.6675054,6.29831434 87.9914615,6.60344255 C88.3154176,6.90857075 88.7307459,7.12470323 89.2374465,7.25183999 L89.2374465,7.25183999 L90.0099572,7.45525879 C90.4917377,7.57391979 90.8447671,7.71588913 91.0690444,7.88116691 C91.2933217,8.04644469 91.4054604,8.26469608 91.4054604,8.53592118 C91.4054604,8.84104939 91.2642485,9.07625238 90.9818255,9.24153016 C90.6994025,9.40680793 90.358833,9.48944682 89.9601178,9.48944682 C89.5863223,9.48944682 89.2436764,9.3834995 88.9321801,9.17160494 C88.6206839,8.95971039 88.3860234,8.65882001 88.2281986,8.268934 L88.2281986,8.268934 L87.28125,8.70119896 C87.4723011,9.20974597 87.7962572,9.62717833 88.2531183,9.95349597 C88.7099795,10.2798136 89.2789796,10.4429725 89.9601178,10.4429725 Z" id="Podcasts" fill="#3C4043" fill-rule="nonzero"></path>
                <path d="M28.1426481,3.6587132 C28.9276186,3.6587132 29.5478423,4.01469611 29.8676452,4.41023267 L29.9161001,4.41023267 L29.9161001,3.8663699 L31.2922213,3.8663699 L31.2922213,9.86863727 C31.2922213,12.3407408 29.8676452,13.3493589 28.1814121,13.3493589 C26.592089,13.3493589 25.6326805,12.2616335 25.2741137,11.3716762 L26.524252,10.8377018 C26.7471449,11.3815646 27.2898406,12.0243115 28.1717211,12.0243115 C29.2474215,12.0243115 29.9161001,11.3420109 29.9161001,10.0664055 L29.9161001,9.58187324 L29.8676452,9.58187324 C29.5478423,9.98729818 28.9276186,10.3432811 28.1426481,10.3432811 C26.50487,10.3432811 25.0027659,8.87979586 25.0027659,7.0108856 C25.0027659,5.12219849 26.50487,3.6587132 28.1426481,3.6587132 Z M13.9453411,3.75759734 C15.7575571,3.75759734 17.2305882,5.16175214 17.2305882,7.09988133 C17.2305882,9.02812204 15.7575571,10.4421652 13.9453411,10.4421652 C12.1331252,10.4421652 10.660094,9.02812204 10.660094,7.09988133 C10.660094,5.16175214 12.1331252,3.75759734 13.9453411,3.75759734 Z M21.1166771,3.75759734 C22.928893,3.75759734 24.4019242,5.16175214 24.4019242,7.09988133 C24.4019242,9.02812204 22.928893,10.4421652 21.1166771,10.4421652 C19.3044611,10.4421652 17.83143,9.02812204 17.83143,7.09988133 C17.83143,5.16175214 19.3044611,3.75759734 21.1166771,3.75759734 Z M37.4944578,3.75759734 C39.1903819,3.75759734 40.0238074,5.1320869 40.2951552,5.88360636 L40.4405201,6.2593661 L36.0601907,8.1084995 C36.3993755,8.77102328 36.9129982,9.11711776 37.6495137,9.11711776 C38.3860293,9.11711776 38.889961,8.75124643 39.2679098,8.19749523 L40.3823742,8.95890316 C40.0141164,9.50276594 39.1516179,10.4421652 37.6495137,10.4421652 C35.7888428,10.4421652 34.4030306,8.96879158 34.4030306,7.09988133 C34.4030306,5.11231007 35.8082247,3.75759734 37.4944578,3.75759734 Z M5.45602992,-1.20985842e-15 C7.00658905,-1.20985842e-15 8.11136242,0.622970085 8.94478791,1.43382004 L7.95630651,2.43254986 C7.36515585,1.85902185 6.5608033,1.41404322 5.45602992,1.41404322 C3.41123007,1.41404322 1.81221597,3.09507361 1.81221597,5.18152897 C1.81221597,7.26798435 3.41123007,8.94901473 5.45602992,8.94901473 C6.78369617,8.94901473 7.53959375,8.40515195 8.02414347,7.91073129 C8.42147424,7.50530626 8.68313109,6.92188987 8.78004104,6.13081672 L5.45602992,6.13081672 L5.45602992,4.7167735 L10.1367803,4.7167735 C10.1852352,4.97387228 10.2143082,5.27052469 10.2143082,5.60673077 C10.2143082,6.67467945 9.93326938,7.98983859 9.01262494,8.91934946 C8.11136242,9.86863727 6.96782506,10.3729464 5.45602992,10.3729464 C2.64564151,10.3729464 0.290729836,8.04916904 0.290729836,5.19141738 C0.290729836,2.3237773 2.64564151,-1.20985842e-15 5.45602992,-1.20985842e-15 Z M33.705279,0.395536566 L33.705279,10.2147318 L32.2710118,10.2147318 L32.2710118,0.395536566 L33.705279,0.395536566 Z M13.9453411,5.062868 C12.9471687,5.062868 12.0943611,5.88360636 12.0943611,7.0899929 C12.0943611,8.28649095 12.9568596,9.11711776 13.9453411,9.11711776 C14.9338226,9.11711776 15.7963211,8.28649095 15.7963211,7.0899929 C15.7963211,5.88360636 14.9338226,5.062868 13.9453411,5.062868 Z M21.1166771,5.062868 C20.1185046,5.062868 19.2656971,5.88360636 19.2656971,7.0899929 C19.2656971,8.28649095 20.1281956,9.11711776 21.1166771,9.11711776 C22.1051586,9.11711776 22.9676571,8.28649095 22.9676571,7.0899929 C22.9676571,5.88360636 22.1148495,5.062868 21.1166771,5.062868 Z M28.268631,4.97387228 C27.2801496,4.97387228 26.4467241,5.8341643 26.4467241,7.0108856 C26.4467241,8.17771847 27.2801496,9.02812204 28.268631,9.02812204 C29.2474215,9.02812204 30.0227011,8.1876068 30.0130101,7.0108856 C30.0130101,5.8341643 29.2474215,4.97387228 28.268631,4.97387228 Z M37.5429128,5.04309117 C36.8063972,5.04309117 35.7888428,5.70561491 35.8276067,6.99110875 L38.7542871,5.75505699 C38.5992312,5.32985518 38.1146815,5.04309117 37.5429128,5.04309117 Z" id="Combined-Shape" fill="#3C4043" fill-rule="nonzero"></path>
            </g>
            <path d="M39.0685831,12.6410256 L39.0685831,11.9392903 L36.0460961,11.9392903 L36.0460961,6.13321314 L35.2006758,6.13321314 L35.2006758,12.6410256 L39.0685831,12.6410256 Z M40.6069852,6.99138622 C40.7646802,6.99138622 40.8844116,6.9466897 40.9661793,6.85729667 C41.0479471,6.76790365 41.088831,6.65616236 41.088831,6.52207282 C41.088831,6.38798328 41.0479471,6.2747521 40.9661793,6.1823793 C40.8844116,6.09000651 40.7646802,6.04382011 40.6069852,6.04382011 C40.4492903,6.04382011 40.330289,6.09000651 40.2499813,6.1823793 C40.1696737,6.2747521 40.1295199,6.38798328 40.1295199,6.52207282 C40.1295199,6.65616236 40.1696737,6.76790365 40.2499813,6.85729667 C40.330289,6.9466897 40.4492903,6.99138622 40.6069852,6.99138622 Z M41.0056031,12.6410256 L41.0056031,7.80486278 L40.1952261,7.80486278 L40.1952261,12.6410256 L41.0056031,12.6410256 Z M44.2698892,12.7304187 C44.8101404,12.7304187 45.2496422,12.6000538 45.5883943,12.3393241 C45.9271465,12.0785945 46.0965226,11.7321966 46.0965226,11.3001302 C46.0965226,11.0408904 46.0359269,10.8211326 45.9147353,10.6408566 C45.7935438,10.4605807 45.6073762,10.3063777 45.3562324,10.1782477 C45.1050885,10.0501177 44.7772873,9.93986631 44.3728289,9.84749347 C43.9683705,9.75512072 43.6887539,9.65827829 43.5339793,9.55696619 C43.3792045,9.45565409 43.3018172,9.30517576 43.3018172,9.10553137 C43.3018172,8.89396783 43.3850451,8.72263121 43.5515009,8.59152143 C43.7179567,8.46041166 43.9486587,8.39485677 44.2436066,8.39485677 C44.5297938,8.39485677 44.7670664,8.47680038 44.9554242,8.6406876 C45.1437821,8.80457482 45.2379611,8.9997496 45.2379611,9.22621194 L45.2379611,9.22621194 L46.0527185,9.22621194 C46.0527185,8.78520633 45.8855326,8.42316456 45.5511608,8.14008664 C45.2167891,7.85700872 44.7809377,7.71546975 44.2436066,7.71546975 C43.7325581,7.71546975 43.3127683,7.85253906 42.984237,8.12667768 C42.6557058,8.40081631 42.4914402,8.73604017 42.4914402,9.13234924 C42.4914402,9.37073065 42.5491157,9.57633466 42.6644667,9.74916118 C42.7798176,9.9219877 42.9579545,10.0709761 43.1988774,10.1961263 C43.4398003,10.3212766 43.7654112,10.4285482 44.1757101,10.5179412 C44.5860092,10.6073343 44.8736565,10.713861 45.0386521,10.8375213 C45.2036478,10.9611816 45.2861457,11.1347531 45.2861457,11.3582357 C45.2861457,11.5697992 45.1934269,11.738901 45.0079892,11.8655411 C44.8225516,11.9921812 44.5765183,12.0555013 44.2698892,12.0555013 C43.9369776,12.0555013 43.6690421,11.9743026 43.4660828,11.8119053 C43.2631235,11.649508 43.1543432,11.4297501 43.1397418,11.1526317 L43.1397418,11.1526317 L42.3293648,11.1526317 C42.3293648,11.4386894 42.4118626,11.7046337 42.5768584,11.9504645 C42.741854,12.1962953 42.9703657,12.3877454 43.2623934,12.5248147 C43.5544212,12.6618841 43.8902531,12.7304187 44.2698892,12.7304187 Z M48.7606917,12.7304187 C48.9621908,12.7304187 49.1695305,12.700621 49.3827108,12.6410256 L49.3827108,12.6410256 L49.3827108,11.970578 C49.2191753,12.0063352 49.0906831,12.0242138 48.9972342,12.0242138 C48.8074161,12.0242138 48.6730833,11.9757925 48.5942359,11.8789501 C48.5153884,11.7821076 48.4759646,11.6368439 48.4759646,11.4431591 L48.4759646,11.4431591 L48.4759646,8.44402293 L49.3608087,8.44402293 L49.3608087,7.80486278 L48.4759646,7.80486278 L48.4759646,6.6338141 L47.6655877,6.6338141 L47.6655877,7.80486278 L46.8026457,7.80486278 L46.8026457,8.44402293 L47.6655877,8.44402293 L47.6655877,11.4431591 C47.6655877,11.854367 47.7575764,12.1717122 47.9415539,12.3951948 C48.1255313,12.6186774 48.3985773,12.7304187 48.7606917,12.7304187 Z M52.4980626,12.7304187 C53.292378,12.7304187 53.8881146,12.419033 54.2852723,11.7962615 L54.2852723,11.7962615 L53.7902854,11.4029322 C53.6413512,11.5995968 53.4675947,11.7575246 53.2690158,11.8767153 C53.070437,11.995906 52.828054,12.0555013 52.5418668,12.0555013 C52.1388685,12.0555013 51.806687,11.9087477 51.5453221,11.6152406 C51.2839574,11.3217336 51.1474343,10.9365986 51.1357532,10.4598357 L51.1357532,10.4598357 L54.3465982,10.4598357 L54.3465982,10.1156726 C54.3465982,9.34391278 54.175762,8.750939 53.8340895,8.33675131 C53.4924171,7.92256361 53.0134916,7.71546975 52.397313,7.71546975 C52.0205973,7.71546975 51.6708941,7.82199645 51.3482035,8.03504983 C51.0255127,8.24810322 50.7743689,8.54310021 50.5947719,8.92004085 C50.4151748,9.29698143 50.3253762,9.72532304 50.3253762,10.2050656 L50.3253762,10.2050656 L50.3253762,10.3570338 C50.3253762,11.0781375 50.5268754,11.6539776 50.9298737,12.0845541 C51.332872,12.5151305 51.8556016,12.7304187 52.4980626,12.7304187 Z M53.5362212,9.78044872 L51.1620358,9.78044872 C51.2146008,9.34242292 51.3518538,9.00198439 51.5737948,8.75913336 C51.7957359,8.5162823 52.070242,8.39485677 52.397313,8.39485677 C52.7360652,8.39485677 53.0047307,8.51032277 53.2033096,8.74125476 C53.4018885,8.97218671 53.512859,9.29772636 53.5362212,9.71787355 L53.5362212,9.71787355 L53.5362212,9.78044872 Z M56.3186615,12.6410256 L56.3186615,9.1949244 C56.429632,8.96250253 56.5844068,8.77477715 56.7829856,8.6317483 C56.9815645,8.48871945 57.2122664,8.41720502 57.4750913,8.41720502 C57.7992422,8.41720502 58.0379749,8.50063852 58.1912894,8.66750551 C58.3446039,8.83437247 58.4227213,9.09212235 58.4256416,9.44075521 L58.4256416,9.44075521 L58.4256416,12.6410256 L59.2360186,12.6410256 L59.2360186,9.44522488 C59.2272578,8.29205479 58.7220498,7.71546975 57.7203946,7.71546975 C57.1363392,7.71546975 56.6632542,7.94789163 56.3011398,8.41273538 L56.3011398,8.41273538 L56.2748574,7.80486278 L55.5082845,7.80486278 L55.5082845,12.6410256 L56.3186615,12.6410256 Z M65.0724849,12.7304187 C65.4988454,12.7304187 65.8762913,12.6261268 66.2048225,12.4175431 C66.5333537,12.2089594 66.7859577,11.9176871 66.9626345,11.5437262 C67.1393113,11.1697654 67.2276496,10.7473833 67.2276496,10.27658 L67.2276496,10.27658 L67.2276496,10.2184746 C67.2276496,9.46161363 67.0283407,8.85523089 66.6297229,8.39932643 C66.231105,7.94342198 65.7091054,7.71546975 65.0637242,7.71546975 C64.6461244,7.71546975 64.2745191,7.81827174 63.9489083,8.0238757 C63.6232973,8.22947966 63.3692331,8.5214969 63.1867158,8.89992736 C63.0041985,9.2783579 62.9129398,9.70446462 62.9129398,10.1782477 L62.9129398,10.1782477 L62.9129398,10.2363532 C62.9129398,10.9872546 63.1122487,11.5906576 63.5108667,12.046562 C63.9094845,12.5024665 64.4300239,12.7304187 65.0724849,12.7304187 Z M65.0724849,12.0555013 C64.6636461,12.0555013 64.3373051,11.893104 64.0934619,11.5683093 C63.8496188,11.2435146 63.7276972,10.8129382 63.7276972,10.27658 C63.7276972,9.67168722 63.8503489,9.20684347 64.0956522,8.88204876 C64.3409555,8.55725411 64.6636461,8.39485677 65.0637242,8.39485677 C65.472563,8.39485677 65.8003641,8.55948893 66.0471275,8.88875322 C66.2938909,9.21801761 66.4172726,9.64784908 66.4172726,10.1782477 C66.4172726,10.7712214 66.2960812,11.2323405 66.0536981,11.5616048 C65.8113152,11.8908691 65.4842441,12.0555013 65.0724849,12.0555013 Z M69.2785605,12.6410256 L69.2785605,9.1949244 C69.389531,8.96250253 69.5443057,8.77477715 69.7428845,8.6317483 C69.9414634,8.48871945 70.1721653,8.41720502 70.4349903,8.41720502 C70.759141,8.41720502 70.9978737,8.50063852 71.1511883,8.66750551 C71.3045029,8.83437247 71.3826203,9.09212235 71.3855405,9.44075521 L71.3855405,9.44075521 L71.3855405,12.6410256 L72.1959175,12.6410256 L72.1959175,9.44522488 C72.1871567,8.29205479 71.6819487,7.71546975 70.6802936,7.71546975 C70.0962381,7.71546975 69.6231532,7.94789163 69.2610388,8.41273538 L69.2610388,8.41273538 L69.2347563,7.80486278 L68.4681835,7.80486278 L68.4681835,12.6410256 L69.2785605,12.6410256 Z" id="Listenon" fill="#5F6368" fill-rule="nonzero"></path>
        </g>
    </g>
</svg>