<?xml version="1.0" encoding="UTF-8"?>
<svg width="133px" height="34px" viewBox="0 0 133 34" version="1.1" xmlns="http://www.w3.org/2000/svg" xmlns:xlink="http://www.w3.org/1999/xlink">
    <!-- Generator: Sketch 43.2 (39069) - http://www.bohemiancoding.com/sketch -->
    <title>Listen in Overcast</title>
    <desc>Created with Sketch.</desc>
    <defs>
        <linearGradient x1="49.999652%" y1="-0.0145055847%" x2="49.999652%" y2="99.9698498%" id="linearGradient-1">
            <stop stop-color="#F452FF" offset="0%"></stop>
            <stop stop-color="#832BC1" offset="100%"></stop>
        </linearGradient>
        <linearGradient x1="49.999652%" y1="-0.0145055847%" x2="49.999652%" y2="99.9698498%" id="linearGradient-2">
            <stop stop-color="#FF9402" offset="0%"></stop>
            <stop stop-color="#FF613C" offset="100%"></stop>
        </linearGradient>
    </defs>
    <g id="Page-1" stroke="none" stroke-width="1" fill="none" fill-rule="evenodd">
        <g id="button-overcast-3">
            <g id="Icon">
                <g id="_Group_">
                    <path d="M132.78,9.08 L132.78,8.08 C132.766788,7.35936275 132.699936,6.64070945 132.58,5.93 C132.456483,5.23394942 132.230707,4.55999204 131.91,3.93 C131.24713,2.64175658 130.198243,1.5928701 128.91,0.93 C128.26451,0.602108936 127.573489,0.3728923 126.86,0.25 C126.14757,0.110794489 125.425392,0.027209114 124.7,-1.55431223e-15 L8.09,-1.55431223e-15 C7.36573144,0.0153779549 6.64366712,0.0855786523 5.93,0.21 C5.23349012,0.336962156 4.55955145,0.566101303 3.93,0.89 C3.27353835,1.21284018 2.67268009,1.63816682 2.15,2.15 C1.63545293,2.65758771 1.2065607,3.24520385 0.88,3.89 C0.558196109,4.51953153 0.332364337,5.19365622 0.21,5.89 C0.0821379812,6.61665401 0.0119192592,7.35227872 0,8.09 L0,9.09 L0,24.94 L0,25.94 C0.0073905197,26.660514 0.0709161456,27.3793566 0.19,28.09 C0.3120719,28.786418 0.537917987,29.4605854 0.86,30.09 C1.18640968,30.7348887 1.6153188,31.3225279 2.13,31.83 C2.63770296,32.3444133 3.22529608,32.7732888 3.87,33.1 C4.4994365,33.4241694 5.17341624,33.6533225 5.87,33.78 C6.60316993,33.9108302 7.34541228,33.9843857 8.09,34 L124.7,34 C125.420459,33.9914973 126.139216,33.9279793 126.85,33.81 C127.563453,33.6869612 128.254452,33.4577516 128.9,33.13 C129.544612,32.8031387 130.132182,32.37428 130.64,31.86 C131.152072,31.3502837 131.580657,30.7630876 131.91,30.12 C132.230572,29.4899512 132.45634,28.8160143 132.58,28.12 C132.699936,27.4092905 132.766788,26.6906373 132.78,25.97 L132.78,24.97 L132.78,23.79 L132.78,10.25 C132.79,9.86 132.79,9.47 132.78,9.08 Z" id="_Path_" fill="#777878" fill-rule="nonzero"></path>
                    <path d="M132.13,23.76 L132.13,24.94 L132.13,25.94 C132.118372,26.6304574 132.05486,27.319064 131.94,28 C131.833615,28.6431956 131.631366,29.2667984 131.34,29.85 C131.040903,30.4331048 130.652932,30.9661422 130.19,31.43 C129.729737,31.8900388 129.199918,32.2747484 128.62,32.57 C128.033925,32.8671588 127.407155,33.076082 126.76,33.19 C126.098294,33.2961462 125.430025,33.3562904 124.76,33.37 L8.1,33.37 C7.39579668,33.3516035 6.69390157,33.281414 6,33.16 C5.35259014,33.0470889 4.72567457,32.838117 4.14,32.54 C2.97113948,31.9401678 2.0198322,30.9888605 1.42,29.82 C1.14620617,29.2436439 0.957570705,28.6305786 0.86,28 C0.747657458,27.3222761 0.687480842,26.6369313 0.68,25.95 L0.68,25.27 L0.68,8.79 L0.68,8.1 C0.687441525,7.41306678 0.747618405,6.72771897 0.86,6.05 C0.96767311,5.40261406 1.17336732,4.77541533 1.47,4.19 C1.766249,3.60812987 2.15458885,3.07796155 2.62,2.62 C3.07996789,2.15691527 3.60974276,1.76886361 4.19,1.47 C4.76045345,1.17971578 5.3702093,0.974217953 6,0.86 C6.69474929,0.749485312 7.39657762,0.689328599 8.1,0.68 L124.68,0.68 C125.366768,0.690724298 126.051872,0.750879805 126.73,0.86 C127.376802,0.970039301 128.003654,1.17561951 128.59,1.47 C129.170534,1.76424405 129.700504,2.14906319 130.16,2.61 C130.622338,3.07060948 131.0103,3.60026076 131.31,4.18 C131.608182,4.76829891 131.81393,5.39903341 131.92,6.05 C132.032627,6.71106111 132.096134,7.3795566 132.11,8.05 L132.11,9.05 L132.11,10.21 L132.11,23.76 L132.13,23.76 Z" id="_Path_2" fill="#FFFFFF" fill-rule="nonzero"></path>
                    <g id="_Group_2" transform="translate(6.000000, 5.000000)">
                        <g id="_Group_3">
                            <path d="M22.24,20.22 C21.9296134,20.9572964 21.4376727,21.6040436 20.81,22.1 C20.3406459,22.4719015 19.8042783,22.7502695 19.23,22.92 C18.3442228,23.1397038 17.4319858,23.2339571 16.52,23.2 L6.45,23.2 C5.53801425,23.2339571 4.62577724,23.1397038 3.74,22.92 C2.3876413,22.5119765 1.28772956,21.5220559 0.74,20.22 C0.391072859,19.1839878 0.238462743,18.0919777 0.29,17 L0.29,17 L0.29,7 L0.29,7 C0.240491018,5.9146678 0.393080857,4.8295845 0.74,3.8 C1.28772956,2.49794409 2.3876413,1.50802353 3.74,1.1 C4.62577724,0.880296173 5.53801425,0.786042903 6.45,0.82 L16.53,0.82 C17.4419858,0.786042903 18.3542228,0.880296173 19.24,1.1 C20.5923587,1.50802353 21.6922704,2.49794409 22.24,3.8 C22.5864663,4.8296916 22.7390442,5.91468974 22.69,7 L22.69,17 C22.742008,18.0919992 22.5893857,19.1840962 22.24,20.22 L22.24,20.22 Z" id="_Path_3" fill="url(#linearGradient-1)" fill-rule="nonzero"></path>
                            <path d="M22.24,20.22 C21.9296134,20.9572964 21.4376727,21.6040436 20.81,22.1 C20.3406459,22.4719015 19.8042783,22.7502695 19.23,22.92 C18.3442228,23.1397038 17.4319858,23.2339571 16.52,23.2 L6.45,23.2 C5.53801425,23.2339571 4.62577724,23.1397038 3.74,22.92 C2.3876413,22.5119765 1.28772956,21.5220559 0.74,20.22 C0.391072859,19.1839878 0.238462743,18.0919777 0.29,17 L0.29,17 L0.29,7 L0.29,7 C0.240491018,5.9146678 0.393080857,4.8295845 0.74,3.8 C1.28772956,2.49794409 2.3876413,1.50802353 3.74,1.1 C4.62577724,0.880296173 5.53801425,0.786042903 6.45,0.82 L16.53,0.82 C17.4419858,0.786042903 18.3542228,0.880296173 19.24,1.1 C20.5923587,1.50802353 21.6922704,2.49794409 22.24,3.8 C22.5864663,4.8296916 22.7390442,5.91468974 22.69,7 L22.69,17 C22.742008,18.0919992 22.5893857,19.1840962 22.24,20.22 L22.24,20.22 Z" id="_Path_4"></path>
                            <g id="_Group_4" transform="translate(3.000000, 3.000000)" fill-rule="nonzero" fill="#FFFFFF">
                                <path d="M10.11,10.68 C9.6687531,10.2787 9.08568223,10.0699462 8.49,10.1 C7.89431777,10.0699462 7.3112469,10.2787 6.87,10.68 C6.69321419,10.8522218 6.58636142,11.0837362 6.57,11.33 C6.51298258,11.8918906 6.51298258,12.4581094 6.57,13.02 C6.63,13.71 6.74,14.62 6.88,15.55 C6.9378394,15.9820186 7.02470254,16.4096525 7.14,16.83 C7.35467482,17.352343 7.88847903,17.6701806 8.45,17.61 C9.01152097,17.6701806 9.54532518,17.352343 9.76,16.83 C9.87553503,16.4097092 9.96240145,15.9820591 10.02,15.55 C10.17,14.62 10.28,13.7 10.33,13.02 C10.3870174,12.4581094 10.3870174,11.8918906 10.33,11.33 C10.3356299,11.0941665 10.2577055,10.8639354 10.11,10.68 Z M6.66,7.52 C6.66,8.53068109 7.47931891,9.35 8.49,9.35 C9.50068109,9.35 10.32,8.53068109 10.32,7.52 C10.32,6.50931891 9.50068109,5.69 8.49,5.69 C7.47931891,5.69 6.66,6.50931891 6.66,7.52 L6.66,7.52 Z M8.47,0.29 C4.62281324,0.283037339 1.33448288,3.05849208 0.695178229,6.85219529 C0.0558735736,10.6458985 2.25300305,14.3457482 5.89,15.6 C5.92388713,15.6096338 5.96033838,15.6024535 5.9880403,15.5806877 C6.01574223,15.5589219 6.03134278,15.5252043 6.03,15.49 C6.03,15.22 5.95,14.95 5.92,14.68 C5.90685975,14.5869201 5.84625355,14.5073745 5.76,14.47 C2.77522579,13.1718487 1.1110492,9.95733845 1.77402355,6.7707197 C2.4369979,3.58410096 5.24514608,1.30005556 8.5,1.30005556 C11.7548539,1.30005556 14.5630021,3.58410096 15.2259764,6.7707197 C15.8889508,9.95733845 14.2247742,13.1718487 11.24,14.47 C11.1537465,14.5073745 11.0931403,14.5869201 11.08,14.68 C11.08,14.95 11.01,15.22 10.97,15.49 C10.9686572,15.5252043 10.9842578,15.5589219 11.0119597,15.5806877 C11.0396616,15.6024535 11.0761129,15.6096338 11.11,15.6 C14.7405498,14.3323123 16.9233347,10.6265788 16.2718644,6.83665664 C15.6203941,3.04673446 12.3254676,0.28259453 8.48,0.3 L8.47,0.29 Z M8.33,3.9 C10.110918,3.8300366 11.7479651,4.87357877 12.4363081,6.51758238 C13.1246511,8.16158598 12.7194832,10.0602019 11.42,11.28 C11.349928,11.3476607 11.3133274,11.4428222 11.32,11.54 C11.3374116,11.8397474 11.3374116,12.1402526 11.32,12.44 C11.3158477,12.4796697 11.3356665,12.5180132 11.3704305,12.537568 C11.4051945,12.5571227 11.4482546,12.5541486 11.48,12.53 C13.389792,11.2270883 14.2274114,8.83158435 13.5456361,6.62249704 C12.8638608,4.41340972 10.8219006,2.90661052 8.51,2.90661052 C6.19809941,2.90661052 4.15613917,4.41340972 3.47436386,6.62249704 C2.79258856,8.83158435 3.63020803,11.2270883 5.54,12.53 C5.57174542,12.5541486 5.61480547,12.5571227 5.64956948,12.537568 C5.6843335,12.5180132 5.70415234,12.4796697 5.7,12.44 C5.68164043,12.1402809 5.68164043,11.8397191 5.7,11.54 C5.7066726,11.4428222 5.67007203,11.3476607 5.6,11.28 C4.34562008,10.1026864 3.92025641,8.28759997 4.52095207,6.67555125 C5.12164774,5.06350252 6.63106899,3.96937256 8.35,3.9 L8.33,3.9 Z" id="Shape"></path>
                            </g>
                        </g>
                    </g>
                </g>
                <path d="M132.13,23.76 L132.13,24.94 L132.13,25.94 C132.118372,26.6304574 132.05486,27.319064 131.94,28 C131.833615,28.6431956 131.631366,29.2667984 131.34,29.85 C131.040903,30.4331048 130.652932,30.9661422 130.19,31.43 C129.729737,31.8900388 129.199918,32.2747484 128.62,32.57 C128.033925,32.8671588 127.407155,33.076082 126.76,33.19 C126.098294,33.2961462 125.430025,33.3562904 124.76,33.37 L8.1,33.37 C7.39579668,33.3516035 6.69390157,33.281414 6,33.16 C5.35259014,33.0470889 4.72567457,32.838117 4.14,32.54 C2.97113948,31.9401678 2.0198322,30.9888605 1.42,29.82 C1.14620617,29.2436439 0.957570705,28.6305786 0.86,28 C0.747657458,27.3222761 0.687480842,26.6369313 0.68,25.95 L0.68,25.27 L0.68,8.79 L0.68,8.1 C0.687441525,7.41306678 0.747618405,6.72771897 0.86,6.05 C0.96767311,5.40261406 1.17336732,4.77541533 1.47,4.19 C1.766249,3.60812987 2.15458885,3.07796155 2.62,2.62 C3.07996789,2.15691527 3.60974276,1.76886361 4.19,1.47 C4.76045345,1.17971578 5.3702093,0.974217953 6,0.86 C6.69474929,0.749485312 7.39657762,0.689328599 8.1,0.68 L124.68,0.68 C125.366768,0.690724298 126.051872,0.750879805 126.73,0.86 C127.376802,0.970039301 128.003654,1.17561951 128.59,1.47 C129.170534,1.76424405 129.700504,2.14906319 130.16,2.61 C130.622338,3.07060948 131.0103,3.60026076 131.31,4.18 C131.608182,4.76829891 131.81393,5.39903341 131.92,6.05 C132.032627,6.71106111 132.096134,7.3795566 132.11,8.05 L132.11,9.05 L132.11,10.21 L132.11,23.76 L132.13,23.76 Z" id="_Path_5" fill="#FFFFFF" fill-rule="nonzero"></path>
                <path d="M28.24,25.22 C27.9296134,25.9572964 27.4376727,26.6040436 26.81,27.1 C26.3406459,27.4719015 25.8042783,27.7502695 25.23,27.92 C24.3442228,28.1397038 23.4319858,28.2339571 22.52,28.2 L12.45,28.2 C11.5380142,28.2339571 10.6257772,28.1397038 9.74,27.92 C8.3876413,27.5119765 7.28772956,26.5220559 6.74,25.22 C6.39107286,24.1839878 6.23846274,23.0919777 6.29,22 L6.29,22 L6.29,12 L6.29,12 C6.24049102,10.9146678 6.39308086,9.8295845 6.74,8.8 C7.28772956,7.49794409 8.3876413,6.50802353 9.74,6.1 C10.6257772,5.88029617 11.5380142,5.7860429 12.45,5.82 L22.53,5.82 C23.4419858,5.7860429 24.3542228,5.88029617 25.24,6.1 C26.5923587,6.50802353 27.6922704,7.49794409 28.24,8.8 C28.5864663,9.8296916 28.7390442,10.9146897 28.69,12 L28.69,22 C28.742008,23.0919992 28.5893857,24.1840962 28.24,25.22 L28.24,25.22 Z" id="_Path_6" fill="url(#linearGradient-2)" fill-rule="nonzero"></path>
            </g>
            <g id="overcastCanvas" transform="translate(10.000000, 10.000000)" fill-rule="nonzero" fill="#FFFFFF">
                <path d="M7.49,13.93 C3.66949215,13.929996 0.571845689,10.8338359 0.570008026,7.01332852 C0.568170363,3.19282111 3.66283689,0.0936825234 7.48334297,0.090003209 C11.303849,0.0863238946 14.404479,3.17949614 14.41,7 C14.418002,8.83865739 13.691824,10.6044641 12.3926236,11.9055419 C11.0934233,13.2066197 9.32866702,13.9353469 7.49,13.93 Z M7.49,11.19 L8.01,10.67 L7.49,8.67 L6.97,10.67 L7.49,11.19 Z M6.83,11.19 L6.57,12.19 L7.18,11.58 L6.83,11.19 Z M8.16,11.19 L7.81,11.54 L8.42,12.15 L8.16,11.19 Z M8.65,12.98 L7.5,11.83 L6.35,12.98 C6.72963428,13.0498114 7.11413154,13.0899328 7.5,13.1 C7.88447148,13.0935649 8.26695006,13.0432388 8.64,12.95 L8.65,12.98 Z M7.49,1 C4.43419958,0.817931754 1.73132321,2.96552721 1.21807708,5.98341447 C0.704830946,9.00130172 2.54581013,11.9216617 5.49,12.76 L6.79,7.95 C6.49658763,7.73604054 6.32512015,7.39310557 6.33,7.03 C6.33355962,6.49173313 6.71001232,6.02795072 7.23604223,5.91377357 C7.76207215,5.79959643 8.29692302,6.06557632 8.52331546,6.55393107 C8.74970789,7.04228582 8.60706329,7.62234036 8.18,7.95 L9.48,12.76 C12.4241899,11.9216617 14.2651691,9.00130172 13.7519229,5.98341447 C13.2386768,2.96552721 10.5358004,0.817931754 7.48,1 L7.49,1 Z M11.44,10 C11.2923964,10.1864806 11.0251691,10.2259076 10.83,10.09 C10.7350329,10.0297943 10.6706723,9.93152942 10.6534306,9.82041595 C10.6361888,9.70930248 10.6677439,9.59615412 10.74,9.51 C11.7704386,8.00260389 11.7704386,6.01739611 10.74,4.51 C10.6677439,4.42384588 10.6361888,4.31069752 10.6534306,4.19958405 C10.6706723,4.08847058 10.7350329,3.99020568 10.83,3.93 C11.0251691,3.79409242 11.2923964,3.8335194 11.44,4.02 C12.7101972,5.81832489 12.7101972,8.22167511 11.44,10.02 L11.44,10 Z M9.34,8.88 C9.16962054,8.69298768 9.16962054,8.40701232 9.34,8.22 C9.63395724,7.88122698 9.79710927,7.44851941 9.8,7 C9.79356686,6.56036578 9.64244032,6.13510275 9.37,5.79 C9.21249417,5.59819101 9.21249417,5.32180899 9.37,5.13 C9.44600076,5.04043024 9.55753146,4.98879529 9.675,4.98879529 C9.79246854,4.98879529 9.90399924,5.04043024 9.98,5.13 C10.9445385,6.21686329 10.9445385,7.85313671 9.98,8.94 C9.89169156,9.02700198 9.76945886,9.07054777 9.64603344,9.05897663 C9.52260802,9.0474055 9.41059892,8.98189955 9.34,8.88 L9.34,8.88 Z M5.65,8.88 C5.57067749,8.96378734 5.46037928,9.01125271 5.345,9.01125271 C5.22962072,9.01125271 5.11932251,8.96378734 5.04,8.88 C4.07546152,7.79313671 4.07546152,6.15686329 5.04,5.07 C5.11600076,4.98043024 5.22753146,4.92879529 5.345,4.92879529 C5.46246854,4.92879529 5.57399924,4.98043024 5.65,5.07 C5.82037946,5.25701232 5.82037946,5.54298768 5.65,5.73 C5.35042222,6.08580196 5.18422299,6.5348935 5.18,7 C5.17687266,7.44130102 5.32909136,7.86963738 5.61,8.21 C5.79821001,8.38771022 5.81572935,8.68115907 5.65,8.88 L5.65,8.88 Z M4.15,10.09 C3.9548309,10.2259076 3.68760363,10.1864806 3.54,10 C2.26980282,8.20167511 2.26980282,5.79832489 3.54,4 C3.68760363,3.8135194 3.9548309,3.77409242 4.15,3.91 C4.24496714,3.97020568 4.30932769,4.06847058 4.32656944,4.17958405 C4.34381118,4.29069752 4.31225613,4.40384588 4.24,4.49 C3.20956138,5.99739611 3.20956138,7.98260389 4.24,9.49 C4.31007014,9.58062091 4.34008579,9.69593016 4.32309322,9.80921398 C4.30610064,9.92249781 4.24357441,10.0239258 4.15,10.09 L4.15,10.09 Z" id="overcastCanvas-group"></path>
            </g>
        </g>
        <path d="M37.4648438,12.2880859 L34.40625,12.2880859 L34.40625,6.65869141 L33.6152344,6.65869141 L33.6152344,13 L37.4648438,13 L37.4648438,12.2880859 Z M38.2822266,13 L39.046875,13 L39.046875,8.26269531 L38.2822266,8.26269531 L38.2822266,13 Z M38.6645508,7.49804688 C38.9326172,7.49804688 39.1479492,7.27832031 39.1479492,7.01464844 C39.1479492,6.74658203 38.9326172,6.53125 38.6645508,6.53125 C38.4008789,6.53125 38.1811523,6.74658203 38.1811523,7.01464844 C38.1811523,7.27832031 38.4008789,7.49804688 38.6645508,7.49804688 Z M40.0488281,9.58544922 C40.0488281,10.2182617 40.453125,10.6357422 41.2836914,10.8510742 L42.1142578,11.0664062 C42.6547852,11.2070312 42.8525391,11.3828125 42.8525391,11.7167969 C42.8525391,12.1430664 42.4482422,12.4111328 41.8022461,12.4111328 C41.15625,12.4111328 40.7651367,12.1518555 40.6860352,11.668457 L39.9169922,11.668457 C39.9916992,12.4902344 40.7299805,13.0439453 41.7495117,13.0439453 C42.84375,13.0439453 43.621582,12.4726562 43.621582,11.6640625 C43.621582,10.9741211 43.2788086,10.6401367 42.3208008,10.3984375 L41.6000977,10.2182617 C41.0551758,10.0820312 40.800293,9.86669922 40.800293,9.54589844 C40.800293,9.1328125 41.1914062,8.85595703 41.7758789,8.85595703 C42.355957,8.85595703 42.7426758,9.1328125 42.7910156,9.57666016 L43.5249023,9.57666016 C43.4941406,8.79882812 42.7646484,8.22314453 41.8022461,8.22314453 C40.7739258,8.22314453 40.0488281,8.78564453 40.0488281,9.58544922 Z M44.7026367,7.19482422 L44.7026367,8.26269531 L44.043457,8.26269531 L44.043457,8.89550781 L44.7026367,8.89550781 L44.7026367,11.7695312 C44.7026367,12.6791992 45.0366211,13.0351562 45.8935547,13.0351562 C46.0737305,13.0351562 46.293457,13.0175781 46.3857422,12.9956055 L46.3857422,12.3496094 C46.3330078,12.3583984 46.1484375,12.371582 46.0561523,12.371582 C45.6518555,12.371582 45.4672852,12.1738281 45.4672852,11.7387695 L45.4672852,8.89550781 L46.3901367,8.89550781 L46.3901367,8.26269531 L45.4672852,8.26269531 L45.4672852,7.19482422 L44.7026367,7.19482422 Z M48.9960938,8.89111328 C48.253418,8.89111328 47.7172852,9.43164062 47.6645508,10.2314453 L50.2705078,10.2314453 C50.2529297,9.42724609 49.7431641,8.89111328 48.9960938,8.89111328 Z M50.2529297,11.6464844 L51.0087891,11.6464844 C50.8769531,12.4594727 50.0551758,13.0439453 49.0444336,13.0439453 C47.7128906,13.0439453 46.8735352,12.1166992 46.8735352,10.6489258 C46.8735352,9.18115234 47.7172852,8.21875 49.0092773,8.21875 C50.2749023,8.21875 51.065918,9.11083984 51.065918,10.543457 L51.065918,10.8422852 L47.6645508,10.8422852 L47.6645508,10.8862305 C47.6645508,11.7871094 48.2182617,12.371582 49.0620117,12.371582 C49.6552734,12.371582 50.1166992,12.090332 50.2529297,11.6464844 Z M51.8701172,13 L52.6347656,13 L52.6347656,10.2490234 C52.6347656,9.43603516 53.1049805,8.89990234 53.8828125,8.89990234 C54.6298828,8.89990234 54.9902344,9.32177734 54.9902344,10.0952148 L54.9902344,13 L55.7548828,13 L55.7548828,9.96337891 C55.7548828,8.88671875 55.152832,8.21875 54.1113281,8.21875 C53.3774414,8.21875 52.9072266,8.49560547 52.6083984,9.03173828 L52.5908203,9.03173828 L52.5908203,8.26269531 L51.8701172,8.26269531 L51.8701172,13 Z M58.9672852,13 L59.7319336,13 L59.7319336,8.26269531 L58.9672852,8.26269531 L58.9672852,13 Z M59.3496094,7.49804688 C59.6176758,7.49804688 59.8330078,7.27832031 59.8330078,7.01464844 C59.8330078,6.74658203 59.6176758,6.53125 59.3496094,6.53125 C59.0859375,6.53125 58.8662109,6.74658203 58.8662109,7.01464844 C58.8662109,7.27832031 59.0859375,7.49804688 59.3496094,7.49804688 Z M60.8129883,13 L61.5776367,13 L61.5776367,10.2490234 C61.5776367,9.43603516 62.0478516,8.89990234 62.8256836,8.89990234 C63.5727539,8.89990234 63.9331055,9.32177734 63.9331055,10.0952148 L63.9331055,13 L64.6977539,13 L64.6977539,9.96337891 C64.6977539,8.88671875 64.0957031,8.21875 63.0541992,8.21875 C62.3203125,8.21875 61.8500977,8.49560547 61.5512695,9.03173828 L61.5336914,9.03173828 L61.5336914,8.26269531 L60.8129883,8.26269531 L60.8129883,13 Z" id="Listen-in" fill="#777878"></path>
        <path d="M36.8051758,16.6879883 C39.4394531,16.6879883 41.0961914,18.5097656 41.0961914,21.4233398 C41.0961914,24.3369141 39.4394531,26.1523438 36.8051758,26.1523438 C34.1645508,26.1523438 32.5141602,24.3369141 32.5141602,21.4233398 C32.5141602,18.5097656 34.1645508,16.6879883 36.8051758,16.6879883 Z M36.8051758,17.9384766 C35.065918,17.9384766 33.9677734,19.2841797 33.9677734,21.4233398 C33.9677734,23.5561523 35.065918,24.9018555 36.8051758,24.9018555 C38.5444336,24.9018555 39.6362305,23.5561523 39.6362305,21.4233398 C39.6362305,19.2841797 38.5444336,17.9384766 36.8051758,17.9384766 Z M48.1611328,19.1064453 L46.7329102,19.1064453 L44.9682617,24.6416016 L44.9365234,24.6416016 L43.1782227,19.1064453 L41.7246094,19.1064453 L44.2128906,26 L45.6791992,26 L48.1611328,19.1064453 Z M51.6650391,20.1411133 C50.6748047,20.1411133 49.9575195,20.8647461 49.8813477,21.9248047 L53.3789062,21.9248047 C53.347168,20.8520508 52.6679688,20.1411133 51.6650391,20.1411133 Z M53.3725586,23.9814453 L54.6865234,23.9814453 C54.4897461,25.2192383 53.2773438,26.0825195 51.7285156,26.0825195 C49.7290039,26.0825195 48.4848633,24.7368164 48.4848633,22.5786133 C48.4848633,20.4204102 49.7416992,19.0175781 51.6713867,19.0175781 C53.5629883,19.0175781 54.7563477,20.331543 54.7563477,22.4199219 L54.7563477,22.9023438 L49.875,22.9023438 L49.875,22.9848633 C49.875,24.1782227 50.6240234,24.965332 51.7539062,24.965332 C52.5537109,24.965332 53.1821289,24.5844727 53.3725586,23.9814453 Z M55.8608398,26 L57.2382812,26 L57.2382812,21.8867188 C57.2382812,20.9155273 57.8095703,20.2871094 58.7172852,20.2871094 C58.9902344,20.2871094 59.2314453,20.3251953 59.3457031,20.3696289 L59.3457031,19.0810547 C59.237793,19.0556641 59.0664062,19.0366211 58.8632812,19.0366211 C58.0507812,19.0366211 57.4160156,19.5 57.2001953,20.2680664 L57.1748047,20.2680664 L57.1748047,19.1064453 L55.8608398,19.1064453 L55.8608398,26 Z M65.8330078,21.4614258 C65.7124023,20.1347656 64.6206055,19.0175781 62.8623047,19.0175781 C60.9135742,19.0175781 59.6313477,20.4077148 59.6313477,22.5532227 C59.6313477,24.7368164 60.9199219,26.0825195 62.875,26.0825195 C64.5317383,26.0825195 65.6870117,25.1240234 65.8457031,23.6831055 L64.5317383,23.6831055 C64.3666992,24.4892578 63.7763672,24.9272461 62.8813477,24.9272461 C61.7768555,24.9272461 61.027832,24.0385742 61.027832,22.5532227 C61.027832,21.105957 61.7641602,20.1791992 62.875,20.1791992 C63.8208008,20.1791992 64.3920898,20.7314453 64.519043,21.4614258 L65.8330078,21.4614258 Z M69.2480469,24.9716797 C70.2700195,24.9716797 71.0444336,24.3178711 71.0444336,23.4101562 L71.0444336,22.8706055 L69.3686523,22.9848633 C68.4291992,23.0419922 67.9404297,23.3911133 67.9404297,24.0004883 C67.9404297,24.5908203 68.4545898,24.9716797 69.2480469,24.9716797 Z M68.8798828,26.0698242 C67.5024414,26.0698242 66.550293,25.2573242 66.550293,24.0258789 C66.550293,22.8198242 67.4833984,22.121582 69.1845703,22.0136719 L71.0444336,21.9057617 L71.0444336,21.3725586 C71.0444336,20.5854492 70.5175781,20.1538086 69.597168,20.1538086 C68.8481445,20.1538086 68.3022461,20.5410156 68.1816406,21.1376953 L66.8930664,21.1376953 C66.9311523,19.9189453 68.0864258,19.0175781 69.6352539,19.0175781 C71.3173828,19.0175781 72.402832,19.90625 72.402832,21.2709961 L72.402832,26 L71.0888672,26 L71.0888672,24.8510742 L71.0571289,24.8510742 C70.6762695,25.6000977 69.8193359,26.0698242 68.8798828,26.0698242 Z M73.6723633,21.0678711 C73.6723633,22.0200195 74.2880859,22.6547852 75.5322266,22.9594727 L76.7636719,23.2641602 C77.4873047,23.4482422 77.7602539,23.6767578 77.7602539,24.1147461 C77.7602539,24.6733398 77.2207031,25.0288086 76.3637695,25.0288086 C75.487793,25.0288086 74.9545898,24.6669922 74.8466797,24.0068359 L73.4882812,24.0068359 C73.5898438,25.2509766 74.6879883,26.0825195 76.2939453,26.0825195 C77.9633789,26.0825195 79.1313477,25.2319336 79.1313477,24.0004883 C79.1313477,22.9848633 78.6171875,22.4833984 77.2270508,22.1469727 L76.0844727,21.8740234 C75.3544922,21.6962891 75.0117188,21.4106445 75.0117188,20.9916992 C75.0117188,20.4458008 75.5322266,20.0839844 76.3129883,20.0839844 C77.1000977,20.0839844 77.6269531,20.4648438 77.684082,21.0742188 L78.9790039,21.0742188 C78.9472656,19.8745117 77.8554688,19.0239258 76.3447266,19.0239258 C74.7578125,19.0239258 73.6723633,19.8554688 73.6723633,21.0678711 Z M80.6611328,17.5576172 L80.6611328,19.1064453 L79.7089844,19.1064453 L79.7089844,20.1918945 L80.6611328,20.1918945 L80.6611328,24.1845703 C80.6611328,25.5175781 81.1943359,26.0444336 82.5717773,26.0444336 C82.8701172,26.0444336 83.1938477,26.0126953 83.3461914,25.9746094 L83.3461914,24.8891602 C83.2573242,24.9018555 83.0224609,24.9208984 82.8764648,24.9208984 C82.2988281,24.9208984 82.0322266,24.6416016 82.0322266,24.0449219 L82.0322266,20.1918945 L83.3525391,20.1918945 L83.3525391,19.1064453 L82.0322266,19.1064453 L82.0322266,17.5576172 L80.6611328,17.5576172 Z" id="Overcast" fill="#000000"></path>
    </g>
</svg>