<svg width="133" height="34" viewBox="0 0 133 34" xmlns="http://www.w3.org/2000/svg"><defs><linearGradient x1="50%" y1="-.015%" x2="50%" y2="99.97%" id="a"><stop stop-color="#F452FF" offset="0%"/><stop stop-color="#832BC1" offset="100%"/></linearGradient><linearGradient x1="50%" y1="-.015%" x2="50%" y2="99.97%" id="b"><stop stop-color="#F0564C" offset="0%"/><stop stop-color="#E14E50" offset="100%"/></linearGradient></defs><g fill="none" fill-rule="evenodd"><path d="M132.78 9.08v-1a14.52 14.52 0 00-.2-2.15 6.95 6.95 0 00-5.72-5.68A14 14 0 00124.7 0H8.09a14.35 14.35 0 00-2.16.21 7.19 7.19 0 00-2 .68 6.69 6.69 0 00-3.05 3 7.09 7.09 0 00-.67 2A14 14 0 000 8.09v17.85c.007.72.07 1.44.19 2.15a7.07 7.07 0 00.67 2 6.68 6.68 0 001.27 1.74 6.7 6.7 0 001.74 1.27 7.17 7.17 0 002 .68c.733.13 1.475.204 2.22.22H124.7a14.15 14.15 0 002.15-.19 7.25 7.25 0 002.05-.68 6.71 6.71 0 001.74-1.27 6.88 6.88 0 001.27-1.74 7.18 7.18 0 00.67-2c.12-.71.187-1.43.2-2.15V10.25c.01-.39.01-.78 0-1.17z" fill="#777878" fill-rule="nonzero"/><path d="M132.13 23.76V25.94a13.78 13.78 0 01-.19 2.06 6.52 6.52 0 01-.6 1.85 6.32 6.32 0 01-1.15 1.58 6.2 6.2 0 01-1.57 1.14 6.67 6.67 0 01-1.86.62 14.5 14.5 0 01-2 .18H8.1a14.36 14.36 0 01-2.1-.21 6.6 6.6 0 01-1.86-.62 6.28 6.28 0 01-2.72-2.72A6.59 6.59 0 01.86 28a13.43 13.43 0 01-.18-2.05V8.1a13.42 13.42 0 01.18-2.05 6.46 6.46 0 01.61-1.86 6.06 6.06 0 011.15-1.57 6.24 6.24 0 011.57-1.15A6.58 6.58 0 016 .86 14.6 14.6 0 018.1.68h116.58c.687.01 1.372.07 2.05.18a6.62 6.62 0 011.86.61 6.3 6.3 0 012.72 2.71 6.42 6.42 0 01.61 1.87c.113.661.176 1.33.19 2v15.71h.02z" fill="#FFF" fill-rule="nonzero"/><path d="M22.24 20.22a4.74 4.74 0 01-3.01 2.7 9.75 9.75 0 01-2.71.28H6.45a9.75 9.75 0 01-2.71-.28 4.74 4.74 0 01-3-2.7A8.79 8.79 0 01.29 17V7a8.77 8.77 0 01.45-3.2 4.74 4.74 0 013-2.7A9.75 9.75 0 016.45.82h10.08a9.75 9.75 0 012.71.28 4.74 4.74 0 013 2.7 8.79 8.79 0 01.45 3.2v10a8.77 8.77 0 01-.45 3.22z" fill="url(#a)" fill-rule="nonzero" transform="translate(6 5)"/><path d="M28.24 25.22a4.74 4.74 0 01-3.01 2.7 9.75 9.75 0 01-2.71.28H12.45a9.75 9.75 0 01-2.71-.28 4.74 4.74 0 01-3-2.7A8.79 8.79 0 016.29 22V12a8.77 8.77 0 01.45-3.2 4.74 4.74 0 013-2.7 9.75 9.75 0 012.71-.28h10.08a9.75 9.75 0 012.71.28 4.74 4.74 0 013 2.7 8.79 8.79 0 01.45 3.2v10a8.77 8.77 0 01-.45 3.22z"/><path d="M19.11 18.68a2.24 2.24 0 00-1.62-.58 2.24 2.24 0 00-1.62.58 1 1 0 00-.3.65 8.37 8.37 0 000 1.69c.06.69.17 1.6.31 2.53.058.432.145.86.26 1.28.215.522.748.84 1.31.78a1.27 1.27 0 001.31-.78 9.63 9.63 0 00.26-1.28c.15-.93.26-1.85.31-2.53a8.37 8.37 0 000-1.69 1 1 0 00-.22-.65zm-3.45-3.16a1.83 1.83 0 103.66 0 1.83 1.83 0 00-3.66 0zm1.81-7.23a7.87 7.87 0 00-2.58 15.31.11.11 0 00.14-.11c0-.27-.08-.54-.11-.81a.27.27 0 00-.16-.21 6.87 6.87 0 115.48 0 .27.27 0 00-.16.21c0 .27-.07.54-.11.81a.11.11 0 00.14.11 7.87 7.87 0 00-2.63-15.3l-.01-.01zm-.14 3.61a4.27 4.27 0 013.09 7.38.33.33 0 00-.1.26c.017.3.017.6 0 .9a.1.1 0 00.16.09 5.27 5.27 0 10-5.94 0 .1.1 0 00.16-.09 7.36 7.36 0 010-.9.33.33 0 00-.1-.26 4.27 4.27 0 012.75-7.38h-.02z" fill-rule="nonzero" fill="#FFF"/><path d="M132.13 23.76V25.94a13.78 13.78 0 01-.19 2.06 6.52 6.52 0 01-.6 1.85 6.32 6.32 0 01-1.15 1.58 6.2 6.2 0 01-1.57 1.14 6.67 6.67 0 01-1.86.62 14.5 14.5 0 01-2 .18H8.1a14.36 14.36 0 01-2.1-.21 6.6 6.6 0 01-1.86-.62 6.28 6.28 0 01-2.72-2.72A6.59 6.59 0 01.86 28a13.43 13.43 0 01-.18-2.05V8.1a13.42 13.42 0 01.18-2.05 6.46 6.46 0 01.61-1.86 6.06 6.06 0 011.15-1.57 6.24 6.24 0 011.57-1.15A6.58 6.58 0 016 .86 14.6 14.6 0 018.1.68h116.58c.687.01 1.372.07 2.05.18a6.62 6.62 0 011.86.61 6.3 6.3 0 012.72 2.71 6.42 6.42 0 01.61 1.87c.113.661.176 1.33.19 2v15.71h.02z" fill="#FFF" fill-rule="nonzero"/><path d="M28.24 25.22a4.74 4.74 0 01-3.01 2.7 9.75 9.75 0 01-2.71.28H12.45a9.75 9.75 0 01-2.71-.28 4.74 4.74 0 01-3-2.7A8.79 8.79 0 016.29 22V12a8.77 8.77 0 01.45-3.2 4.74 4.74 0 013-2.7 9.75 9.75 0 012.71-.28h10.08a9.75 9.75 0 012.71.28 4.74 4.74 0 013 2.7 8.79 8.79 0 01.45 3.2v10a8.77 8.77 0 01-.45 3.22z" fill="url(#b)" fill-rule="nonzero"/><g fill-rule="nonzero" fill="#FFF"><path d="M17.49 22.12A5.11 5.11 0 1122.6 17h1.81a6.92 6.92 0 10-6.92 6.92v-1.8z"/><path d="M17.49 12.8a4.21 4.21 0 100 8.42v-1.5A2.71 2.71 0 1120.2 17h1.5a4.21 4.21 0 00-4.21-4.2z"/></g><path d="M37.465 12.288h-3.059v-5.63h-.79V13h3.849v-.712zm.817.712h.765V8.263h-.765V13zm.383-5.502a.482.482 0 100-.967.485.485 0 00-.484.484c0 .263.22.483.484.483zm1.384 2.087c0 .633.404 1.05 1.235 1.266l.83.215c.54.141.739.317.739.65 0 .427-.405.695-1.05.695-.647 0-1.038-.26-1.117-.743h-.769c.075.822.813 1.376 1.833 1.376 1.094 0 1.872-.571 1.872-1.38 0-.69-.343-1.024-1.301-1.266l-.72-.18c-.546-.136-.8-.351-.8-.672 0-.413.39-.69.975-.69.58 0 .967.277 1.015.72h.734c-.03-.777-.76-1.353-1.723-1.353-1.028 0-1.753.563-1.753 1.362zm4.654-2.39v1.068h-.66v.633h.66v2.874c0 .91.334 1.265 1.19 1.265.18 0 .4-.017.493-.04v-.645a3.168 3.168 0 01-.33.022c-.404 0-.589-.198-.589-.633V8.896h.923v-.633h-.923V7.195h-.764zm4.293 1.696c-.743 0-1.279.54-1.331 1.34h2.606c-.018-.804-.528-1.34-1.275-1.34zm1.257 2.755h.756c-.132.813-.954 1.398-1.965 1.398-1.331 0-2.17-.927-2.17-2.395s.843-2.43 2.135-2.43c1.266 0 2.057.892 2.057 2.324v.3h-3.401v.043c0 .901.553 1.486 1.397 1.486.593 0 1.055-.282 1.19-.726zM51.87 13h.765v-2.751c0-.813.47-1.35 1.248-1.35.747 0 1.107.423 1.107 1.196V13h.765V9.963c0-1.076-.602-1.744-1.644-1.744-.734 0-1.204.277-1.503.813h-.017v-.77h-.72V13zm7.097 0h.765V8.263h-.765V13zm.383-5.502a.482.482 0 100-.967.485.485 0 00-.484.484c0 .263.22.483.484.483zM60.813 13h.765v-2.751c0-.813.47-1.35 1.248-1.35.747 0 1.107.423 1.107 1.196V13h.765V9.963c0-1.076-.602-1.744-1.644-1.744-.734 0-1.204.277-1.503.813h-.017v-.77h-.721V13z" fill="#777878"/><path d="M32.844 16.84h3.587c1.777 0 3.021 1.225 3.021 3.01 0 1.79-1.27 3.02-3.066 3.02h-2.12V26h-1.422v-9.16zm1.422 1.2v3.637h1.79c1.232 0 1.943-.666 1.943-1.822 0-1.155-.705-1.815-1.943-1.815h-1.79zm8.957 8.043c-1.994 0-3.263-1.359-3.263-3.53 0-2.164 1.276-3.535 3.263-3.535 1.986 0 3.256 1.364 3.256 3.535 0 2.171-1.263 3.53-3.256 3.53zm0-1.143c1.168 0 1.86-.882 1.86-2.387 0-1.504-.692-2.393-1.86-2.393-1.168 0-1.867.895-1.867 2.393 0 1.505.699 2.387 1.867 2.387zm10.251-3.479c-.12-1.326-1.212-2.443-2.97-2.443-1.95 0-3.232 1.39-3.232 3.535 0 2.184 1.289 3.53 3.244 3.53 1.657 0 2.812-.959 2.97-2.4h-1.313c-.165.806-.756 1.244-1.65 1.244-1.105 0-1.854-.888-1.854-2.374 0-1.447.736-2.374 1.847-2.374.946 0 1.517.552 1.644 1.282h1.314zm2.463.622h-.006v-5.655h-1.378V26h1.378v-2.501l.596-.584L58.907 26h1.588l-2.984-3.923 2.882-2.97h-1.619l-2.837 2.976zm7.852-1.942c-.99 0-1.707.724-1.784 1.784h3.498c-.032-1.073-.711-1.784-1.714-1.784zm1.708 3.84h1.314c-.197 1.238-1.41 2.102-2.958 2.102-2 0-3.244-1.346-3.244-3.504 0-2.159 1.257-3.561 3.186-3.561 1.892 0 3.085 1.314 3.085 3.402v.482H62v.083c0 1.193.749 1.98 1.879 1.98.8 0 1.428-.38 1.619-.984zm2.9-6.423v1.548h-.952v1.086h.952v3.993c0 1.333.534 1.86 1.911 1.86.298 0 .622-.032.775-.07v-1.086a4.44 4.44 0 01-.47.032c-.578 0-.844-.28-.844-.876v-3.853h1.32v-1.086h-1.32v-1.548h-1.372zm10.855 8.594c2.107 0 3.542-1.11 3.891-3.002h-1.415c-.286 1.104-1.194 1.758-2.47 1.758-1.682 0-2.748-1.352-2.748-3.491 0-2.12 1.079-3.485 2.742-3.485 1.244 0 2.222.768 2.476 1.943h1.409c-.241-1.911-1.81-3.187-3.885-3.187-2.558 0-4.196 1.828-4.196 4.729 0 2.92 1.625 4.735 4.196 4.735zm7.427-1.18c1.022 0 1.796-.654 1.796-1.562v-.54l-1.676.115c-.94.057-1.428.406-1.428 1.015 0 .59.514.972 1.308.972zm-.368 1.098c-1.378 0-2.33-.813-2.33-2.044 0-1.206.933-1.904 2.634-2.012l1.86-.108v-.533c0-.788-.527-1.22-1.447-1.22-.75 0-1.295.388-1.416.985h-1.288c.038-1.22 1.193-2.12 2.742-2.12 1.682 0 2.767.888 2.767 2.253V26H88.52v-1.149h-.032c-.381.75-1.238 1.219-2.177 1.219zm4.792-5.002c0 .952.616 1.587 1.86 1.891l1.231.305c.724.184.997.413.997.85 0 .56-.54.915-1.397.915-.876 0-1.409-.362-1.517-1.022H90.92c.102 1.244 1.2 2.076 2.806 2.076 1.669 0 2.837-.851 2.837-2.083 0-1.015-.514-1.517-1.904-1.853l-1.143-.273c-.73-.178-1.073-.463-1.073-.882 0-.546.52-.908 1.302-.908.787 0 1.314.38 1.37.99h1.296c-.032-1.2-1.124-2.05-2.635-2.05-1.587 0-2.672.831-2.672 2.044zm6.989-3.51v1.548h-.952v1.086h.952v3.993c0 1.333.533 1.86 1.91 1.86.299 0 .623-.032.775-.07v-1.086a4.44 4.44 0 01-.47.032c-.578 0-.844-.28-.844-.876v-3.853h1.32v-1.086h-1.32v-1.548h-1.371zm3.739 3.51c0 .952.615 1.587 1.86 1.891l1.23.305c.725.184.997.413.997.85 0 .56-.54.915-1.396.915-.876 0-1.41-.362-1.517-1.022h-1.359c.102 1.244 1.2 2.076 2.806 2.076 1.67 0 2.838-.851 2.838-2.083 0-1.015-.515-1.517-1.905-1.853l-1.142-.273c-.73-.178-1.073-.463-1.073-.882 0-.546.52-.908 1.301-.908.787 0 1.314.38 1.371.99h1.295c-.032-1.2-1.123-2.05-2.634-2.05-1.587 0-2.672.831-2.672 2.044z" fill="#000"/></g></svg>