<svg width="133" height="34" viewBox="0 0 133 34" xmlns="http://www.w3.org/2000/svg"><defs><linearGradient x1="50%" y1="-.015%" x2="50%" y2="99.97%" id="a"><stop stop-color="#F452FF" offset="0%"/><stop stop-color="#832BC1" offset="100%"/></linearGradient><linearGradient x1="50%" y1="-.015%" x2="50%" y2="99.97%" id="b"><stop stop-color="#FF9402" offset="0%"/><stop stop-color="#FF613C" offset="100%"/></linearGradient></defs><g fill="none" fill-rule="evenodd"><path d="M132.78 9.08v-1a14.52 14.52 0 00-.2-2.15 6.95 6.95 0 00-5.72-5.68A14 14 0 00124.7 0H8.09a14.35 14.35 0 00-2.16.21 7.19 7.19 0 00-2 .68 6.69 6.69 0 00-3.05 3 7.09 7.09 0 00-.67 2A14 14 0 000 8.09v17.85c.007.72.07 1.44.19 2.15a7.07 7.07 0 00.67 2 6.68 6.68 0 001.27 1.74 6.7 6.7 0 001.74 1.27 7.17 7.17 0 002 .68c.733.13 1.475.204 2.22.22H124.7a14.15 14.15 0 002.15-.19 7.25 7.25 0 002.05-.68 6.71 6.71 0 001.74-1.27 6.88 6.88 0 001.27-1.74 7.18 7.18 0 00.67-2c.12-.71.187-1.43.2-2.15V10.25c.01-.39.01-.78 0-1.17z" fill="#777878" fill-rule="nonzero"/><path d="M132.13 23.76V25.94a13.78 13.78 0 01-.19 2.06 6.52 6.52 0 01-.6 1.85 6.32 6.32 0 01-1.15 1.58 6.2 6.2 0 01-1.57 1.14 6.67 6.67 0 01-1.86.62 14.5 14.5 0 01-2 .18H8.1a14.36 14.36 0 01-2.1-.21 6.6 6.6 0 01-1.86-.62 6.28 6.28 0 01-2.72-2.72A6.59 6.59 0 01.86 28a13.43 13.43 0 01-.18-2.05V8.1a13.42 13.42 0 01.18-2.05 6.46 6.46 0 01.61-1.86 6.06 6.06 0 011.15-1.57 6.24 6.24 0 011.57-1.15A6.58 6.58 0 016 .86 14.6 14.6 0 018.1.68h116.58c.687.01 1.372.07 2.05.18a6.62 6.62 0 011.86.61 6.3 6.3 0 012.72 2.71 6.42 6.42 0 01.61 1.87c.113.661.176 1.33.19 2v15.71h.02z" fill="#FFF" fill-rule="nonzero"/><path d="M22.24 20.22a4.74 4.74 0 01-3.01 2.7 9.75 9.75 0 01-2.71.28H6.45a9.75 9.75 0 01-2.71-.28 4.74 4.74 0 01-3-2.7A8.79 8.79 0 01.29 17V7a8.77 8.77 0 01.45-3.2 4.74 4.74 0 013-2.7A9.75 9.75 0 016.45.82h10.08a9.75 9.75 0 012.71.28 4.74 4.74 0 013 2.7 8.79 8.79 0 01.45 3.2v10a8.77 8.77 0 01-.45 3.22z" fill="url(#a)" fill-rule="nonzero" transform="translate(6 5)"/><path d="M28.24 25.22a4.74 4.74 0 01-3.01 2.7 9.75 9.75 0 01-2.71.28H12.45a9.75 9.75 0 01-2.71-.28 4.74 4.74 0 01-3-2.7A8.79 8.79 0 016.29 22V12a8.77 8.77 0 01.45-3.2 4.74 4.74 0 013-2.7 9.75 9.75 0 012.71-.28h10.08a9.75 9.75 0 012.71.28 4.74 4.74 0 013 2.7 8.79 8.79 0 01.45 3.2v10a8.77 8.77 0 01-.45 3.22z"/><path d="M19.11 18.68a2.24 2.24 0 00-1.62-.58 2.24 2.24 0 00-1.62.58 1 1 0 00-.3.65 8.37 8.37 0 000 1.69c.06.69.17 1.6.31 2.53.058.432.145.86.26 1.28.215.522.748.84 1.31.78a1.27 1.27 0 001.31-.78 9.63 9.63 0 00.26-1.28c.15-.93.26-1.85.31-2.53a8.37 8.37 0 000-1.69 1 1 0 00-.22-.65zm-3.45-3.16a1.83 1.83 0 103.66 0 1.83 1.83 0 00-3.66 0zm1.81-7.23a7.87 7.87 0 00-2.58 15.31.11.11 0 00.14-.11c0-.27-.08-.54-.11-.81a.27.27 0 00-.16-.21 6.87 6.87 0 115.48 0 .27.27 0 00-.16.21c0 .27-.07.54-.11.81a.11.11 0 00.14.11 7.87 7.87 0 00-2.63-15.3l-.01-.01zm-.14 3.61a4.27 4.27 0 013.09 7.38.33.33 0 00-.1.26c.017.3.017.6 0 .9a.1.1 0 00.16.09 5.27 5.27 0 10-5.94 0 .1.1 0 00.16-.09 7.36 7.36 0 010-.9.33.33 0 00-.1-.26 4.27 4.27 0 012.75-7.38h-.02z" fill-rule="nonzero" fill="#FFF"/><path d="M132.13 23.76V25.94a13.78 13.78 0 01-.19 2.06 6.52 6.52 0 01-.6 1.85 6.32 6.32 0 01-1.15 1.58 6.2 6.2 0 01-1.57 1.14 6.67 6.67 0 01-1.86.62 14.5 14.5 0 01-2 .18H8.1a14.36 14.36 0 01-2.1-.21 6.6 6.6 0 01-1.86-.62 6.28 6.28 0 01-2.72-2.72A6.59 6.59 0 01.86 28a13.43 13.43 0 01-.18-2.05V8.1a13.42 13.42 0 01.18-2.05 6.46 6.46 0 01.61-1.86 6.06 6.06 0 011.15-1.57 6.24 6.24 0 011.57-1.15A6.58 6.58 0 016 .86 14.6 14.6 0 018.1.68h116.58c.687.01 1.372.07 2.05.18a6.62 6.62 0 011.86.61 6.3 6.3 0 012.72 2.71 6.42 6.42 0 01.61 1.87c.113.661.176 1.33.19 2v15.71h.02z" fill="#FFF" fill-rule="nonzero"/><path d="M28.24 25.22a4.74 4.74 0 01-3.01 2.7 9.75 9.75 0 01-2.71.28H12.45a9.75 9.75 0 01-2.71-.28 4.74 4.74 0 01-3-2.7A8.79 8.79 0 016.29 22V12a8.77 8.77 0 01.45-3.2 4.74 4.74 0 013-2.7 9.75 9.75 0 012.71-.28h10.08a9.75 9.75 0 012.71.28 4.74 4.74 0 013 2.7 8.79 8.79 0 01.45 3.2v10a8.77 8.77 0 01-.45 3.22z" fill="url(#b)" fill-rule="nonzero"/><g fill-rule="nonzero" fill="#FFF"><path d="M17.49 23.93A6.92 6.92 0 1124.41 17a6.9 6.9 0 01-6.92 6.93zm0-2.74l.52-.52-.52-2-.52 2 .52.52zm-.66 0l-.26 1 .61-.61-.35-.39zm1.33 0l-.35.35.61.61-.26-.96zm.49 1.79l-1.15-1.15-1.15 1.15c.38.07.764.11 1.15.12a5.05 5.05 0 001.14-.15l.01.03zM17.49 11a6 6 0 00-2 11.76l1.3-4.81a1.12 1.12 0 01-.46-.92 1.15 1.15 0 111.85.92l1.3 4.81a6 6 0 00-2-11.76h.01zm3.95 9a.45.45 0 01-.61.09.39.39 0 01-.09-.58 4.43 4.43 0 000-5 .39.39 0 01.09-.58.45.45 0 01.61.09 5.2 5.2 0 010 6V20zm-2.1-1.12a.49.49 0 010-.66A1.88 1.88 0 0019.8 17a2 2 0 00-.43-1.21.52.52 0 010-.66.4.4 0 01.61 0 2.87 2.87 0 010 3.81.42.42 0 01-.64-.06zm-3.69 0a.42.42 0 01-.61 0 2.87 2.87 0 010-3.81.4.4 0 01.61 0 .49.49 0 010 .66 2 2 0 00-.47 1.27c-.003.441.15.87.43 1.21a.49.49 0 01.04.67zm-1.5 1.21a.45.45 0 01-.61-.09 5.2 5.2 0 010-6 .45.45 0 01.61-.09.39.39 0 01.09.58 4.43 4.43 0 000 5 .42.42 0 01-.09.6z"/></g><path d="M37.465 12.288h-3.059v-5.63h-.79V13h3.849v-.712zm.817.712h.765V8.263h-.765V13zm.383-5.502a.482.482 0 100-.967.485.485 0 00-.484.484c0 .263.22.483.484.483zm1.384 2.087c0 .633.404 1.05 1.235 1.266l.83.215c.54.141.739.317.739.65 0 .427-.405.695-1.05.695-.647 0-1.038-.26-1.117-.743h-.769c.075.822.813 1.376 1.833 1.376 1.094 0 1.872-.571 1.872-1.38 0-.69-.343-1.024-1.301-1.266l-.72-.18c-.546-.136-.8-.351-.8-.672 0-.413.39-.69.975-.69.58 0 .967.277 1.015.72h.734c-.03-.777-.76-1.353-1.723-1.353-1.028 0-1.753.563-1.753 1.362zm4.654-2.39v1.068h-.66v.633h.66v2.874c0 .91.334 1.265 1.19 1.265.18 0 .4-.017.493-.04v-.645a3.168 3.168 0 01-.33.022c-.404 0-.589-.198-.589-.633V8.896h.923v-.633h-.923V7.195h-.764zm4.293 1.696c-.743 0-1.279.54-1.331 1.34h2.606c-.018-.804-.528-1.34-1.275-1.34zm1.257 2.755h.756c-.132.813-.954 1.398-1.965 1.398-1.331 0-2.17-.927-2.17-2.395s.843-2.43 2.135-2.43c1.266 0 2.057.892 2.057 2.324v.3h-3.401v.043c0 .901.553 1.486 1.397 1.486.593 0 1.055-.282 1.19-.726zM51.87 13h.765v-2.751c0-.813.47-1.35 1.248-1.35.747 0 1.107.423 1.107 1.196V13h.765V9.963c0-1.076-.602-1.744-1.644-1.744-.734 0-1.204.277-1.503.813h-.017v-.77h-.72V13zm7.097 0h.765V8.263h-.765V13zm.383-5.502a.482.482 0 100-.967.485.485 0 00-.484.484c0 .263.22.483.484.483zM60.813 13h.765v-2.751c0-.813.47-1.35 1.248-1.35.747 0 1.107.423 1.107 1.196V13h.765V9.963c0-1.076-.602-1.744-1.644-1.744-.734 0-1.204.277-1.503.813h-.017v-.77h-.721V13z" fill="#777878"/><path d="M36.805 16.688c2.634 0 4.291 1.822 4.291 4.735 0 2.914-1.657 4.73-4.29 4.73-2.641 0-4.292-1.816-4.292-4.73 0-2.913 1.65-4.735 4.291-4.735zm0 1.25c-1.74 0-2.837 1.346-2.837 3.485 0 2.133 1.098 3.479 2.837 3.479 1.74 0 2.831-1.346 2.831-3.479 0-2.139-1.092-3.485-2.83-3.485zm11.356 1.168h-1.428l-1.765 5.536h-.031l-1.759-5.536h-1.453L44.213 26h1.466l2.482-6.894zm3.504 1.035c-.99 0-1.707.724-1.784 1.784h3.498c-.032-1.073-.711-1.784-1.714-1.784zm1.708 3.84h1.314c-.197 1.238-1.41 2.102-2.958 2.102-2 0-3.244-1.346-3.244-3.504 0-2.159 1.257-3.561 3.186-3.561 1.892 0 3.085 1.314 3.085 3.402v.482h-4.881v.083c0 1.193.749 1.98 1.879 1.98.8 0 1.428-.38 1.619-.984zM55.86 26h1.377v-4.113c0-.971.572-1.6 1.48-1.6.272 0 .513.038.628.083V19.08a2.26 2.26 0 00-.483-.044c-.812 0-1.447.463-1.663 1.231h-.025v-1.162H55.86V26zm9.972-4.539c-.12-1.326-1.212-2.443-2.97-2.443-1.95 0-3.232 1.39-3.232 3.535 0 2.184 1.289 3.53 3.244 3.53 1.657 0 2.812-.959 2.97-2.4h-1.313c-.165.806-.756 1.244-1.65 1.244-1.105 0-1.854-.888-1.854-2.374 0-1.447.736-2.374 1.847-2.374.946 0 1.517.552 1.644 1.282h1.314zm3.415 3.51c1.022 0 1.796-.653 1.796-1.56v-.54l-1.675.114c-.94.057-1.429.406-1.429 1.015 0 .59.515.972 1.308.972zm-.368 1.099c-1.378 0-2.33-.813-2.33-2.044 0-1.206.933-1.904 2.635-2.012l1.86-.108v-.533c0-.788-.527-1.22-1.448-1.22-.749 0-1.295.388-1.415.985h-1.289c.038-1.22 1.193-2.12 2.742-2.12 1.682 0 2.768.888 2.768 2.253V26h-1.314v-1.149h-.032c-.38.75-1.238 1.219-2.177 1.219zm4.792-5.002c0 .952.616 1.587 1.86 1.891l1.232.305c.723.184.996.413.996.85 0 .56-.54.915-1.396.915-.876 0-1.41-.362-1.517-1.022h-1.359c.102 1.244 1.2 2.076 2.806 2.076 1.67 0 2.837-.851 2.837-2.083 0-1.015-.514-1.517-1.904-1.853l-1.143-.273c-.73-.178-1.072-.463-1.072-.882 0-.546.52-.908 1.301-.908.787 0 1.314.38 1.371.99h1.295c-.032-1.2-1.124-2.05-2.634-2.05-1.587 0-2.673.831-2.673 2.044zm6.99-3.51v1.548h-.953v1.086h.952v3.993c0 1.333.533 1.86 1.91 1.86.3 0 .623-.032.775-.07v-1.086a4.44 4.44 0 01-.47.032c-.577 0-.844-.28-.844-.876v-3.853h1.32v-1.086h-1.32v-1.548h-1.37z" fill="#000"/></g></svg>