<svg width="134" height="35" viewBox="0 0 134 35" xmlns="http://www.w3.org/2000/svg"><g fill="none" fill-rule="evenodd"><rect width="133" height="34" rx="8.96" fill="#FFF" fill-rule="nonzero" stroke="#9AA0A6" stroke-width=".56" transform="translate(.28 .28)"/><path d="M5.37 5.474H29.4v24.52H5.37z"/><path d="M7.749 15.563c-.761 0-1.377.628-1.377 1.405V18.5c0 .777.616 1.405 1.377 1.405.76 0 1.376-.628 1.376-1.405v-1.532c0-.777-.615-1.405-1.376-1.405z" fill="#0066D9" fill-rule="nonzero"/><path d="M27.023 15.563c-.761 0-1.377.628-1.377 1.405V18.5c0 .777.616 1.405 1.377 1.405.76 0 1.376-.628 1.376-1.405v-1.532c0-.777-.616-1.405-1.376-1.405z" fill="#4285F4" fill-rule="nonzero"/><path d="M12.505 20.16c-.761 0-1.377.629-1.377 1.405v1.533c0 .776.616 1.404 1.377 1.404.76 0 1.376-.628 1.376-1.404v-1.533c0-.776-.615-1.405-1.376-1.405zM12.505 10.966c-.761 0-1.377.628-1.377 1.404v5.013h.001c.018.761.626 1.373 1.376 1.373.75 0 1.357-.612 1.375-1.373h.001V12.37c0-.776-.615-1.404-1.376-1.404z" fill="#EA4335" fill-rule="nonzero"/><path d="M22.267 10.966c-.761 0-1.377.628-1.377 1.404v1.533c0 .776.616 1.405 1.377 1.405.76 0 1.376-.629 1.376-1.405V12.37c0-.776-.615-1.404-1.376-1.404z" fill="#34A853" fill-rule="nonzero"/><path d="M17.386 6.496c-.761 0-1.377.628-1.377 1.405v1.532c0 .777.616 1.405 1.377 1.405.76 0 1.376-.628 1.376-1.405V7.901c0-.777-.615-1.405-1.376-1.405zM17.386 24.63c-.761 0-1.377.628-1.377 1.405v1.532c0 .777.616 1.405 1.377 1.405.76 0 1.376-.628 1.376-1.405v-1.532c0-.777-.615-1.405-1.376-1.405z" fill="#FAB908" fill-rule="nonzero"/><path d="M22.267 16.712c-.761 0-1.377.629-1.377 1.405v4.98c0 .777.616 1.405 1.377 1.405.76 0 1.376-.628 1.376-1.404v-4.98c0-.777-.615-1.406-1.376-1.406z" fill="#34A853" fill-rule="nonzero"/><path d="M18.762 13.648c0-.777-.615-1.405-1.376-1.405-.761 0-1.377.628-1.377 1.405v8.173c0 .776.616 1.404 1.377 1.404.76 0 1.376-.628 1.376-1.404v-8.173z" fill="#FAB908" fill-rule="nonzero"/><g><path d="M34.74 16.59h90.708v14.24H34.74z"/><path d="M79.546 26.416v-3.713h1.956c.499 0 .96-.114 1.383-.343a2.656 2.656 0 001.016-.96 2.6 2.6 0 00.38-1.392 2.6 2.6 0 00-.38-1.392 2.656 2.656 0 00-1.016-.96 2.864 2.864 0 00-1.383-.343H78.5v9.103h1.047zm1.981-4.743h-1.981v-3.33h1.981c.332 0 .625.08.879.241.253.161.45.369.591.623a1.626 1.626 0 010 1.602 1.719 1.719 0 01-.591.623 1.602 1.602 0 01-.879.241zm6.255 4.946a3.157 3.157 0 002.847-1.704 3.664 3.664 0 00.417-1.741c0-.636-.139-1.217-.417-1.742a3.157 3.157 0 00-2.847-1.704 3.157 3.157 0 00-2.847 1.704 3.664 3.664 0 00-.418 1.742c0 .635.14 1.216.418 1.741a3.157 3.157 0 002.847 1.704zm0-.979c-.39 0-.756-.1-1.096-.299-.341-.199-.613-.485-.817-.858-.203-.373-.305-.81-.305-1.31s.102-.936.305-1.309c.204-.373.476-.659.817-.858.34-.2.706-.299 1.096-.299.39 0 .754.1 1.09.299.337.2.607.485.81.858.204.373.305.81.305 1.31s-.101.936-.305 1.31a2.189 2.189 0 01-.81.857c-.336.2-.7.3-1.09.3zm7.015.98c.49 0 .926-.113 1.308-.338.382-.224.673-.498.872-.82h.05v.954h1.01v-9.103h-1.06v2.682l.05.903h-.05c-.199-.33-.49-.608-.872-.833a2.533 2.533 0 00-1.308-.337c-.565 0-1.078.149-1.539.445a3.087 3.087 0 00-1.09 1.233 3.86 3.86 0 00-.399 1.768c0 .66.133 1.252.399 1.773.266.522.63.93 1.09 1.227.461.297.974.445 1.539.445zm.124-.98c-.365 0-.71-.102-1.034-.305a2.186 2.186 0 01-.778-.87 2.767 2.767 0 01-.293-1.291c0-.483.097-.914.293-1.29.195-.378.454-.668.778-.872a1.912 1.912 0 012.075 0c.32.204.577.492.772.865.196.373.293.805.293 1.297 0 .491-.097.924-.293 1.296a2.213 2.213 0 01-.772.865c-.32.203-.667.305-1.04.305zm7.327.98c.681 0 1.26-.166 1.738-.497.478-.33.824-.763 1.04-1.297l-.947-.406c-.157.39-.398.69-.722.902-.324.212-.71.318-1.159.318-.374 0-.723-.104-1.047-.311a2.244 2.244 0 01-.778-.871 2.728 2.728 0 01-.293-1.284c0-.483.097-.911.293-1.284.195-.373.454-.664.778-.871a1.904 1.904 0 011.047-.312c.44 0 .816.104 1.128.312.311.207.546.51.704.909l.959-.407a2.672 2.672 0 00-1.003-1.303c-.47-.327-1.049-.49-1.738-.49-.615 0-1.167.149-1.657.445-.49.297-.872.708-1.147 1.233a3.763 3.763 0 00-.41 1.768c0 .652.136 1.24.41 1.76.275.522.657.933 1.147 1.234.49.3 1.042.451 1.657.451zm5.719 0c.457 0 .868-.111 1.233-.331.366-.22.64-.488.823-.801h.05v.928h1.009v-4.107c0-.797-.247-1.426-.741-1.888-.495-.462-1.174-.693-2.038-.693-.531 0-1.015.11-1.451.33-.436.221-.779.526-1.028.916l.797.61c.175-.28.411-.497.71-.654.3-.157.628-.235.985-.235.507 0 .926.146 1.258.438.333.293.499.68.499 1.163v.395c-.175-.11-.426-.208-.754-.293a4.25 4.25 0 00-1.065-.127c-.773 0-1.413.193-1.92.578-.506.386-.76.922-.76 1.609 0 .415.1.786.3 1.112.199.327.481.583.847.77.365.186.78.28 1.246.28zm.1-.954c-.407 0-.744-.11-1.01-.331a1.07 1.07 0 01-.398-.865c0-.39.147-.707.442-.953.295-.246.733-.369 1.314-.369.324 0 .632.043.923.127.29.085.535.195.735.331 0 .373-.092.716-.274 1.03a2.1 2.1 0 01-.736.75c-.307.186-.64.28-.996.28zm6.466.953c.465 0 .89-.08 1.271-.241.382-.161.685-.392.91-.693.224-.301.336-.65.336-1.05 0-.457-.158-.845-.473-1.163-.316-.317-.785-.557-1.408-.718l-.922-.241c-.366-.094-.64-.214-.823-.363a.71.71 0 01-.274-.578c0-.255.131-.464.393-.63.261-.165.567-.247.916-.247.722 0 1.225.288 1.507.864l.922-.432a2.07 2.07 0 00-.928-1.03 2.98 2.98 0 00-1.489-.369c-.424 0-.818.077-1.184.23-.365.152-.658.37-.878.654-.22.284-.33.612-.33.985 0 .483.162.877.486 1.183.324.305.739.52 1.246.648l.772.203c.482.119.835.261 1.06.426a.775.775 0 01.336.655c0 .305-.142.54-.424.706-.282.165-.623.248-1.022.248-.374 0-.716-.106-1.028-.318a1.935 1.935 0 01-.704-.903l-.947.432c.191.509.515.926.972 1.253.457.326 1.026.49 1.707.49zm5.881-.102c.2 0 .364-.012.492-.038.13-.025.256-.068.38-.127v-1.055a1.273 1.273 0 01-.697.216c-.3 0-.528-.093-.686-.28-.132-.17-.199-.432-.199-.788v-3.534h1.545v-.98h-1.545v-1.83h-1.059v1.83h-1.109v.98h1.109v3.801c0 .305.042.564.125.776.083.211.207.398.373.559.15.144.335.258.555.343.22.085.459.127.716.127zm4.287.102c.465 0 .888-.08 1.27-.241.383-.161.686-.392.91-.693.224-.301.336-.65.336-1.05 0-.457-.157-.845-.473-1.163-.316-.317-.785-.557-1.408-.718l-.922-.241c-.366-.094-.64-.214-.822-.363a.71.71 0 01-.275-.578c0-.255.131-.464.393-.63.262-.165.567-.247.916-.247.722 0 1.225.288 1.507.864l.922-.432a2.07 2.07 0 00-.928-1.03 2.98 2.98 0 00-1.489-.369c-.423 0-.818.077-1.183.23-.366.152-.659.37-.879.654-.22.284-.33.612-.33.985 0 .483.162.877.486 1.183.324.305.74.52 1.246.648l.772.203c.482.119.835.261 1.06.426a.775.775 0 01.336.655c0 .305-.141.54-.424.706-.282.165-.623.248-1.021.248-.374 0-.717-.106-1.028-.318a1.936 1.936 0 01-.704-.903l-.947.432c.19.509.515.926.972 1.253.456.326 1.025.49 1.707.49zM62.883 19.835c.785 0 1.405.356 1.725.751h.048v-.544h1.377v6.003c0 2.472-1.425 3.48-3.111 3.48-1.59 0-2.549-1.087-2.908-1.977l1.25-.534c.224.544.766 1.186 1.648 1.186 1.076 0 1.744-.682 1.744-1.957v-.485h-.048c-.32.405-.94.761-1.725.761-1.638 0-3.14-1.463-3.14-3.332 0-1.889 1.502-3.352 3.14-3.352zm-14.197.099c1.812 0 3.285 1.404 3.285 3.342 0 1.928-1.473 3.342-3.285 3.342S45.4 25.204 45.4 23.276c0-1.938 1.474-3.342 3.286-3.342zm7.171 0c1.812 0 3.285 1.404 3.285 3.342 0 1.928-1.473 3.342-3.285 3.342s-3.285-1.414-3.285-3.342c0-1.938 1.473-3.342 3.285-3.342zm16.378 0c1.696 0 2.53 1.374 2.8 2.126l.146.375-4.38 1.85c.339.662.852 1.008 1.589 1.008.736 0 1.24-.366 1.618-.92l1.115.762c-.368.544-1.231 1.483-2.733 1.483-1.86 0-3.247-1.473-3.247-3.342 0-1.988 1.406-3.342 3.092-3.342zm-32.039-3.758c1.551 0 2.656.623 3.49 1.434l-.99.999c-.59-.574-1.395-1.019-2.5-1.019-2.044 0-3.643 1.681-3.643 3.768 0 2.086 1.599 3.767 3.643 3.767 1.328 0 2.084-.544 2.569-1.038.397-.406.659-.989.755-1.78h-3.324v-1.414h4.681c.049.257.078.554.078.89 0 1.068-.281 2.383-1.202 3.312-.901.95-2.045 1.454-3.557 1.454-2.81 0-5.165-2.324-5.165-5.181 0-2.868 2.355-5.192 5.165-5.192zm28.25.396v9.819H67.01v-9.82h1.435zm-19.76 4.667c-.998 0-1.851.82-1.851 2.027 0 1.197.862 2.027 1.85 2.027.99 0 1.852-.83 1.852-2.027 0-1.206-.863-2.027-1.851-2.027zm7.171 0c-.998 0-1.85.82-1.85 2.027 0 1.197.862 2.027 1.85 2.027.989 0 1.851-.83 1.851-2.027 0-1.206-.853-2.027-1.85-2.027zm7.152-.089c-.988 0-1.822.86-1.822 2.037 0 1.167.834 2.017 1.822 2.017.979 0 1.754-.84 1.744-2.017 0-1.177-.765-2.037-1.744-2.037zm9.274.07c-.736 0-1.754.662-1.715 1.947l2.927-1.236c-.155-.425-.64-.712-1.212-.712z" fill="#3C4043" fill-rule="nonzero"/></g><path d="M39.349 12.921v-.702h-3.023V6.413h-.845v6.508h3.868zm1.538-5.65c.158 0 .277-.044.36-.134a.478.478 0 00.122-.335.494.494 0 00-.123-.34c-.082-.092-.201-.138-.359-.138-.158 0-.277.046-.357.138a.5.5 0 00-.12.34c0 .134.04.246.12.335.08.09.2.134.357.134zm.399 5.65V8.085h-.81v4.836h.81zm3.264.09c.54 0 .98-.13 1.318-.392.34-.26.509-.607.509-1.039 0-.26-.061-.479-.182-.66-.121-.18-.308-.334-.559-.462a4.31 4.31 0 00-.983-.33c-.405-.093-.684-.19-.839-.291a.504.504 0 01-.232-.451c0-.212.083-.383.25-.514.166-.132.397-.197.692-.197.286 0 .523.082.711.246.189.164.283.359.283.585h.815a1.36 1.36 0 00-.502-1.086c-.334-.283-.77-.425-1.307-.425-.511 0-.931.138-1.26.412-.328.274-.493.609-.493 1.005 0 .239.058.444.173.617.116.173.294.322.535.447.24.125.566.233.977.322.41.09.698.196.863.32a.613.613 0 01.247.52c0 .212-.093.38-.278.508-.185.126-.431.19-.738.19-.333 0-.601-.082-.804-.244a.862.862 0 01-.326-.66h-.81c0 .287.082.553.247.798.165.246.393.438.685.575.292.137.628.205 1.008.205zm4.49 0c.202 0 .41-.03.623-.09v-.67a1.925 1.925 0 01-.386.053c-.19 0-.324-.048-.403-.145-.079-.097-.118-.242-.118-.436V8.724h.885v-.64h-.885v-1.17h-.81v1.17h-.863v.64h.863v3c0 .41.092.728.276.951.184.224.457.335.819.335zm3.738 0c.794 0 1.39-.312 1.787-.935l-.495-.393a1.84 1.84 0 01-.521.474c-.199.119-.44.179-.727.179-.403 0-.735-.147-.997-.44-.261-.294-.398-.68-.41-1.156h3.212v-.344c0-.772-.171-1.365-.513-1.78-.342-.413-.82-.62-1.437-.62-.376 0-.726.106-1.049.319a2.132 2.132 0 00-.753.885c-.18.377-.27.805-.27 1.285v.152c0 .721.202 1.297.605 1.728.403.43.926.645 1.568.645zm1.038-2.95h-2.374c.053-.439.19-.779.412-1.022.222-.243.496-.364.823-.364.34 0 .608.115.806.346.199.231.31.557.333.977v.062zm2.783 2.86V9.475a1.45 1.45 0 01.464-.563c.199-.143.43-.215.692-.215.324 0 .563.084.716.25.154.167.232.425.235.774v3.2h.81V9.725c-.009-1.153-.514-1.73-1.516-1.73-.584 0-1.057.233-1.419.698l-.026-.608h-.767v4.836h.81zm8.753.09c.427 0 .804-.105 1.133-.313.328-.209.581-.5.758-.874a2.93 2.93 0 00.265-1.267v-.059c0-.756-.2-1.363-.598-1.819-.399-.456-.92-.684-1.566-.684-.418 0-.79.103-1.115.309a2.07 2.07 0 00-.762.876 2.905 2.905 0 00-.274 1.278v.058c0 .751.2 1.355.598 1.81.398.456.919.684 1.561.684zm0-.675c-.408 0-.735-.163-.979-.488-.243-.324-.365-.755-.365-1.291 0-.605.122-1.07.368-1.395.245-.325.568-.487.968-.487.409 0 .736.164.983.494.247.329.37.759.37 1.29 0 .592-.12 1.053-.363 1.383-.243.329-.57.494-.982.494zm4.207.585V9.475a1.45 1.45 0 01.464-.563c.198-.143.43-.215.692-.215.324 0 .563.084.716.25.154.167.232.425.235.774v3.2h.81V9.725c-.009-1.153-.514-1.73-1.516-1.73-.584 0-1.057.233-1.419.698l-.026-.608h-.767v4.836h.81z" fill="#5F6368" fill-rule="nonzero"/></g></svg>