<svg width="133" height="34" viewBox="0 0 133 34" xmlns="http://www.w3.org/2000/svg"><defs><linearGradient x1="50%" y1="-.015%" x2="50%" y2="99.97%" id="a"><stop stop-color="#F452FF" offset="0%"/><stop stop-color="#832BC1" offset="100%"/></linearGradient></defs><g fill="none" fill-rule="evenodd"><path d="M132.78 9.08v-1a14.52 14.52 0 00-.2-2.15 6.95 6.95 0 00-5.72-5.68A14 14 0 00124.7 0H8.09a14.35 14.35 0 00-2.16.21 7.19 7.19 0 00-2 .68 6.69 6.69 0 00-3.05 3 7.09 7.09 0 00-.67 2A14 14 0 000 8.09v17.85c.007.72.07 1.44.19 2.15a7.07 7.07 0 00.67 2 6.68 6.68 0 001.27 1.74 6.7 6.7 0 001.74 1.27 7.17 7.17 0 002 .68c.733.13 1.475.204 2.22.22H124.7a14.15 14.15 0 002.15-.19 7.25 7.25 0 002.05-.68 6.71 6.71 0 001.74-1.27 6.88 6.88 0 001.27-1.74 7.18 7.18 0 00.67-2c.12-.71.187-1.43.2-2.15V10.25c.01-.39.01-.78 0-1.17z" fill="#777878" fill-rule="nonzero"/><path d="M132.13 23.76V25.94a13.78 13.78 0 01-.19 2.06 6.52 6.52 0 01-.6 1.85 6.32 6.32 0 01-1.15 1.58 6.2 6.2 0 01-1.57 1.14 6.67 6.67 0 01-1.86.62 14.5 14.5 0 01-2 .18H8.1a14.36 14.36 0 01-2.1-.21 6.6 6.6 0 01-1.86-.62 6.28 6.28 0 01-2.72-2.72A6.59 6.59 0 01.86 28a13.43 13.43 0 01-.18-2.05V8.1a13.42 13.42 0 01.18-2.05 6.46 6.46 0 01.61-1.86 6.06 6.06 0 011.15-1.57 6.24 6.24 0 011.57-1.15A6.58 6.58 0 016 .86 14.6 14.6 0 018.1.68h116.58c.687.01 1.372.07 2.05.18a6.62 6.62 0 011.86.61 6.3 6.3 0 012.72 2.71 6.42 6.42 0 01.61 1.87c.113.661.176 1.33.19 2v15.71h.02z" fill="#FFF" fill-rule="nonzero"/><path d="M22.24 20.22a4.74 4.74 0 01-3.01 2.7 9.75 9.75 0 01-2.71.28H6.45a9.75 9.75 0 01-2.71-.28 4.74 4.74 0 01-3-2.7A8.79 8.79 0 01.29 17V7a8.77 8.77 0 01.45-3.2 4.74 4.74 0 013-2.7A9.75 9.75 0 016.45.82h10.08a9.75 9.75 0 012.71.28 4.74 4.74 0 013 2.7 8.79 8.79 0 01.45 3.2v10a8.77 8.77 0 01-.45 3.22z" fill="url(#a)" fill-rule="nonzero" transform="translate(6 5)"/><path d="M28.24 25.22a4.74 4.74 0 01-3.01 2.7 9.75 9.75 0 01-2.71.28H12.45a9.75 9.75 0 01-2.71-.28 4.74 4.74 0 01-3-2.7A8.79 8.79 0 016.29 22V12a8.77 8.77 0 01.45-3.2 4.74 4.74 0 013-2.7 9.75 9.75 0 012.71-.28h10.08a9.75 9.75 0 012.71.28 4.74 4.74 0 013 2.7 8.79 8.79 0 01.45 3.2v10a8.77 8.77 0 01-.45 3.22z"/><path d="M19.11 18.68a2.24 2.24 0 00-1.62-.58 2.24 2.24 0 00-1.62.58 1 1 0 00-.3.65 8.37 8.37 0 000 1.69c.06.69.17 1.6.31 2.53.058.432.145.86.26 1.28.215.522.748.84 1.31.78a1.27 1.27 0 001.31-.78 9.63 9.63 0 00.26-1.28c.15-.93.26-1.85.31-2.53a8.37 8.37 0 000-1.69 1 1 0 00-.22-.65zm-3.45-3.16a1.83 1.83 0 103.66 0 1.83 1.83 0 00-3.66 0zm1.81-7.23a7.87 7.87 0 00-2.58 15.31.11.11 0 00.14-.11c0-.27-.08-.54-.11-.81a.27.27 0 00-.16-.21 6.87 6.87 0 115.48 0 .27.27 0 00-.16.21c0 .27-.07.54-.11.81a.11.11 0 00.14.11 7.87 7.87 0 00-2.63-15.3l-.01-.01zm-.14 3.61a4.27 4.27 0 013.09 7.38.33.33 0 00-.1.26c.017.3.017.6 0 .9a.1.1 0 00.16.09 5.27 5.27 0 10-5.94 0 .1.1 0 00.16-.09 7.36 7.36 0 010-.9.33.33 0 00-.1-.26 4.27 4.27 0 012.75-7.38h-.02z" fill-rule="nonzero" fill="#FFF"/><path d="M132.13 23.76V25.94a13.78 13.78 0 01-.19 2.06 6.52 6.52 0 01-.6 1.85 6.32 6.32 0 01-1.15 1.58 6.2 6.2 0 01-1.57 1.14 6.67 6.67 0 01-1.86.62 14.5 14.5 0 01-2 .18H8.1a14.36 14.36 0 01-2.1-.21 6.6 6.6 0 01-1.86-.62 6.28 6.28 0 01-2.72-2.72A6.59 6.59 0 01.86 28a13.43 13.43 0 01-.18-2.05V8.1a13.42 13.42 0 01.18-2.05 6.46 6.46 0 01.61-1.86 6.06 6.06 0 011.15-1.57 6.24 6.24 0 011.57-1.15A6.58 6.58 0 016 .86 14.6 14.6 0 018.1.68h116.58c.687.01 1.372.07 2.05.18a6.62 6.62 0 011.86.61 6.3 6.3 0 012.72 2.71 6.42 6.42 0 01.61 1.87c.113.661.176 1.33.19 2v15.71h.02z" fill="#FFF" fill-rule="nonzero"/><path d="M32.312 11.255c.075 1.121 1.006 1.85 2.351 1.85 1.46 0 2.373-.725 2.373-1.885 0-.91-.532-1.415-1.846-1.744l-.663-.176c-.861-.224-1.213-.51-1.213-.989 0-.62.571-1.046 1.393-1.046.826 0 1.376.418 1.446 1.099h.79c-.034-1.064-.948-1.81-2.21-1.81-1.318 0-2.24.738-2.24 1.792 0 .862.518 1.376 1.687 1.675l.813.21c.852.22 1.226.55 1.226 1.086 0 .624-.624 1.077-1.481 1.077-.905 0-1.556-.453-1.63-1.139h-.796zm9.413-2.992h-.765v2.75c0 .814-.47 1.35-1.248 1.35-.742 0-1.107-.418-1.107-1.196V8.263h-.765v3.036c0 1.077.602 1.745 1.64 1.745.725 0 1.212-.281 1.507-.826h.017V13h.721V8.263zm3.366 4.78c-.69 0-1.235-.298-1.542-.843h-.018v.8h-.725V6.382h.765v2.65h.017c.3-.519.849-.813 1.52-.813 1.192 0 2.005.967 2.005 2.412 0 1.45-.813 2.413-2.022 2.413zM44.955 8.9c-.826 0-1.389.707-1.389 1.731 0 1.029.563 1.732 1.39 1.732.83 0 1.375-.677 1.375-1.732 0-1.05-.545-1.731-1.376-1.731zm2.883.685c0 .633.404 1.05 1.235 1.266l.83.215c.54.141.739.317.739.65 0 .427-.405.695-1.05.695-.647 0-1.038-.26-1.117-.743h-.769c.075.822.813 1.376 1.833 1.376 1.094 0 1.872-.571 1.872-1.38 0-.69-.343-1.024-1.301-1.266l-.72-.18c-.546-.136-.8-.351-.8-.672 0-.413.39-.69.975-.69.58 0 .967.277 1.015.72h.734c-.03-.777-.76-1.353-1.723-1.353-1.028 0-1.753.563-1.753 1.362zm8.319.22c-.097-.83-.813-1.586-1.987-1.586-1.296 0-2.162.958-2.162 2.412 0 1.49.87 2.413 2.171 2.413 1.081 0 1.86-.637 1.987-1.56h-.752c-.132.571-.571.879-1.23.879-.827 0-1.398-.655-1.398-1.732 0-1.046.563-1.731 1.389-1.731.712 0 1.134.4 1.23.905h.752zM56.899 13h.765v-2.931c0-.668.404-1.116 1.02-1.116.189 0 .356.022.417.044v-.752a1.727 1.727 0 00-.316-.026c-.554 0-1.007.316-1.147.813h-.018v-.77h-.72V13zm2.896 0h.765V8.263h-.765V13zm.383-5.502a.482.482 0 100-.967.485.485 0 00-.484.484c0 .263.22.483.484.483zm3.792 5.546c-.69 0-1.235-.299-1.542-.844h-.018v.8h-.725V6.382h.765v2.65h.017c.3-.519.848-.813 1.52-.813 1.192 0 2.005.967 2.005 2.412 0 1.45-.813 2.413-2.022 2.413zM63.834 8.9c-.826 0-1.389.707-1.389 1.731 0 1.029.563 1.732 1.389 1.732.83 0 1.375-.677 1.375-1.732 0-1.05-.544-1.731-1.375-1.731zm4.852-.009c-.743 0-1.28.54-1.332 1.34h2.606c-.018-.804-.527-1.34-1.274-1.34zm1.256 2.755h.756c-.132.813-.953 1.398-1.964 1.398-1.332 0-2.171-.927-2.171-2.395s.844-2.43 2.136-2.43c1.265 0 2.056.892 2.056 2.324v.3h-3.401v.043c0 .901.554 1.486 1.397 1.486.594 0 1.055-.282 1.191-.726zm7.634-3.383h-.796l-1.331 3.91h-.018l-1.327-3.91h-.8L75.054 13h.773l1.749-4.737zM78.248 13h.765V8.263h-.765V13zm.382-5.502a.482.482 0 100-.967.485.485 0 00-.483.484c0 .263.22.483.483.483zm3.01 4.882c.774 0 1.341-.5 1.341-1.182v-.382l-1.24.079c-.711.044-1.08.303-1.08.76 0 .44.382.725.98.725zm-.162.664c-.962 0-1.6-.554-1.6-1.393 0-.813.624-1.292 1.776-1.362l1.327-.08v-.395c0-.589-.387-.914-1.085-.914-.55 0-.959.281-1.05.73h-.735c.022-.8.8-1.411 1.793-1.411 1.12 0 1.842.597 1.842 1.529V13h-.725v-.822h-.018c-.268.528-.861.866-1.525.866z" fill="#777878"/><path d="M33.266 18.034v3.294h2.044c1.098 0 1.733-.603 1.733-1.65 0-1.022-.673-1.644-1.771-1.644h-2.006zm0 4.443V26h-1.422v-9.16h3.6c1.885 0 3.059 1.092 3.059 2.8 0 1.237-.66 2.24-1.777 2.615L38.782 26h-1.644l-1.866-3.523h-2.006zm6.202.971c.089 1.657 1.46 2.704 3.491 2.704 2.17 0 3.536-1.072 3.536-2.786 0-1.34-.781-2.095-2.66-2.54l-1.01-.247c-1.18-.292-1.662-.673-1.662-1.32 0-.813.755-1.371 1.86-1.371 1.104 0 1.86.552 1.942 1.466h1.384c-.045-1.58-1.371-2.666-3.307-2.666-1.956 0-3.333 1.085-3.333 2.666 0 1.276.78 2.063 2.463 2.47l1.187.285c1.187.292 1.688.717 1.688 1.428 0 .819-.831 1.416-1.986 1.416-1.207 0-2.089-.597-2.19-1.505h-1.403zm7.896 0c.09 1.657 1.46 2.704 3.491 2.704 2.171 0 3.536-1.072 3.536-2.786 0-1.34-.78-2.095-2.66-2.54l-1.009-.247c-1.18-.292-1.663-.673-1.663-1.32 0-.813.755-1.371 1.86-1.371 1.104 0 1.86.552 1.942 1.466h1.384c-.044-1.58-1.371-2.666-3.307-2.666-1.955 0-3.333 1.085-3.333 2.666 0 1.276.781 2.063 2.463 2.47l1.187.285c1.187.292 1.689.717 1.689 1.428 0 .819-.832 1.416-1.987 1.416-1.206 0-2.088-.597-2.19-1.505h-1.403zM60.085 26v-3.834h3.936v-1.2h-3.936v-2.9h4.297V16.84h-5.719V26h1.422zm8.138-5.859c-.99 0-1.708.724-1.784 1.784h3.498c-.032-1.073-.711-1.784-1.714-1.784zm1.707 3.84h1.314c-.197 1.238-1.409 2.102-2.958 2.102-2 0-3.244-1.346-3.244-3.504 0-2.159 1.257-3.561 3.187-3.561 1.892 0 3.085 1.314 3.085 3.402v.482h-4.881v.083c0 1.193.749 1.98 1.879 1.98.8 0 1.428-.38 1.618-.984zm5.358-3.84c-.99 0-1.708.724-1.784 1.784H77c-.031-1.073-.71-1.784-1.713-1.784zm1.707 3.84h1.314c-.197 1.238-1.41 2.102-2.958 2.102-2 0-3.244-1.346-3.244-3.504 0-2.159 1.257-3.561 3.187-3.561 1.892 0 3.085 1.314 3.085 3.402v.482h-4.881v.083c0 1.193.749 1.98 1.878 1.98.8 0 1.429-.38 1.62-.984zm5.085 2.089c-1.727 0-2.908-1.39-2.908-3.523 0-2.12 1.181-3.51 2.895-3.51.99 0 1.777.45 2.17 1.212h.033v-3.821h1.37V26h-1.332v-1.168h-.026c-.406.78-1.193 1.238-2.202 1.238zm.349-5.865c-1.111 0-1.847.926-1.847 2.348 0 1.428.73 2.349 1.847 2.349 1.104 0 1.847-.94 1.847-2.349 0-1.403-.743-2.348-1.847-2.348z" fill="#000"/><g fill-rule="nonzero" fill="#000"><path d="M23.872 23.557H21.38c-.474-6.584-4.063-10.12-10.843-10.583v-2.39c6.63-.317 13.46 5.39 13.335 12.973zm-8.624-4.609c1.296 1.268 1.545 2.902 1.595 4.609h2.542c.15-5.121-3.813-8.803-8.848-8.657 0 .049-.025.122-.025.17v2.317c1.77.074 3.44.293 4.736 1.561zm-.648 2.61c0-1.098-.898-1.976-2.044-1.952-1.097 0-1.994.903-1.994 1.976.024 1.072.922 1.95 2.019 1.95 1.146-.024 2.019-.902 2.019-1.975zm13.834.219v-9.608C28.434 8.755 25.617 6 22.127 6h-9.82C8.816 6 6 8.755 6 12.17v9.607c0 3.413 2.817 6.169 6.306 6.169h9.821c3.49 0 6.307-2.756 6.307-6.17zM22.127 7.366c2.717 0 4.91 2.145 4.91 4.803v9.608c0 2.657-2.193 4.803-4.91 4.803h-9.82c-2.718 0-4.911-2.146-4.911-4.803v-9.608c0-2.658 2.193-4.803 4.91-4.803h9.821z"/></g></g></svg>