<?xml version="1.0" encoding="UTF-8"?>
<svg width="133px" height="34px" viewBox="0 0 133 34" version="1.1" xmlns="http://www.w3.org/2000/svg" xmlns:xlink="http://www.w3.org/1999/xlink">
    <!-- Generator: Sketch 43.2 (39069) - http://www.bohemiancoding.com/sketch -->
    <title>Group</title>
    <desc>Created with Sketch.</desc>
    <defs>
        <linearGradient x1="49.999652%" y1="-0.0145055847%" x2="49.999652%" y2="99.9698498%" id="linearGradient-1">
            <stop stop-color="#F452FF" offset="0%"></stop>
            <stop stop-color="#832BC1" offset="100%"></stop>
        </linearGradient>
    </defs>
    <g id="Page-1" stroke="none" stroke-width="1" fill="none" fill-rule="evenodd">
        <g id="Group">
            <g id="outline">
                <g id="Icon">
                    <g id="_Group_">
                        <path d="M132.78,9.08 L132.78,8.08 C132.766788,7.35936275 132.699936,6.64070945 132.58,5.93 C132.456483,5.23394942 132.230707,4.55999204 131.91,3.93 C131.24713,2.64175658 130.198243,1.5928701 128.91,0.93 C128.26451,0.602108936 127.573489,0.3728923 126.86,0.25 C126.14757,0.110794489 125.425392,0.027209114 124.7,-1.55431223e-15 L8.09,-1.55431223e-15 C7.36573144,0.0153779549 6.64366712,0.0855786523 5.93,0.21 C5.23349012,0.336962156 4.55955145,0.566101303 3.93,0.89 C3.27353835,1.21284018 2.67268009,1.63816682 2.15,2.15 C1.63545293,2.65758771 1.2065607,3.24520385 0.88,3.89 C0.558196109,4.51953153 0.332364337,5.19365622 0.21,5.89 C0.0821379812,6.61665401 0.0119192592,7.35227872 0,8.09 L0,9.09 L0,24.94 L0,25.94 C0.0073905197,26.660514 0.0709161456,27.3793566 0.19,28.09 C0.3120719,28.786418 0.537917987,29.4605854 0.86,30.09 C1.18640968,30.7348887 1.6153188,31.3225279 2.13,31.83 C2.63770296,32.3444133 3.22529608,32.7732888 3.87,33.1 C4.4994365,33.4241694 5.17341624,33.6533225 5.87,33.78 C6.60316993,33.9108302 7.34541228,33.9843857 8.09,34 L124.7,34 C125.420459,33.9914973 126.139216,33.9279793 126.85,33.81 C127.563453,33.6869612 128.254452,33.4577516 128.9,33.13 C129.544612,32.8031387 130.132182,32.37428 130.64,31.86 C131.152072,31.3502837 131.580657,30.7630876 131.91,30.12 C132.230572,29.4899512 132.45634,28.8160143 132.58,28.12 C132.699936,27.4092905 132.766788,26.6906373 132.78,25.97 L132.78,24.97 L132.78,23.79 L132.78,10.25 C132.79,9.86 132.79,9.47 132.78,9.08 Z" id="_Path_" fill="#777878" fill-rule="nonzero"></path>
                        <path d="M132.13,23.76 L132.13,24.94 L132.13,25.94 C132.118372,26.6304574 132.05486,27.319064 131.94,28 C131.833615,28.6431956 131.631366,29.2667984 131.34,29.85 C131.040903,30.4331048 130.652932,30.9661422 130.19,31.43 C129.729737,31.8900388 129.199918,32.2747484 128.62,32.57 C128.033925,32.8671588 127.407155,33.076082 126.76,33.19 C126.098294,33.2961462 125.430025,33.3562904 124.76,33.37 L8.1,33.37 C7.39579668,33.3516035 6.69390157,33.281414 6,33.16 C5.35259014,33.0470889 4.72567457,32.838117 4.14,32.54 C2.97113948,31.9401678 2.0198322,30.9888605 1.42,29.82 C1.14620617,29.2436439 0.957570705,28.6305786 0.86,28 C0.747657458,27.3222761 0.687480842,26.6369313 0.68,25.95 L0.68,25.27 L0.68,8.79 L0.68,8.1 C0.687441525,7.41306678 0.747618405,6.72771897 0.86,6.05 C0.96767311,5.40261406 1.17336732,4.77541533 1.47,4.19 C1.766249,3.60812987 2.15458885,3.07796155 2.62,2.62 C3.07996789,2.15691527 3.60974276,1.76886361 4.19,1.47 C4.76045345,1.17971578 5.3702093,0.974217953 6,0.86 C6.69474929,0.749485312 7.39657762,0.689328599 8.1,0.68 L124.68,0.68 C125.366768,0.690724298 126.051872,0.750879805 126.73,0.86 C127.376802,0.970039301 128.003654,1.17561951 128.59,1.47 C129.170534,1.76424405 129.700504,2.14906319 130.16,2.61 C130.622338,3.07060948 131.0103,3.60026076 131.31,4.18 C131.608182,4.76829891 131.81393,5.39903341 131.92,6.05 C132.032627,6.71106111 132.096134,7.3795566 132.11,8.05 L132.11,9.05 L132.11,10.21 L132.11,23.76 L132.13,23.76 Z" id="_Path_2" fill="#FFFFFF" fill-rule="nonzero"></path>
                        <g id="_Group_2" transform="translate(6.000000, 5.000000)">
                            <g id="_Group_3">
                                <path d="M22.24,20.22 C21.9296134,20.9572964 21.4376727,21.6040436 20.81,22.1 C20.3406459,22.4719015 19.8042783,22.7502695 19.23,22.92 C18.3442228,23.1397038 17.4319858,23.2339571 16.52,23.2 L6.45,23.2 C5.53801425,23.2339571 4.62577724,23.1397038 3.74,22.92 C2.3876413,22.5119765 1.28772956,21.5220559 0.74,20.22 C0.391072859,19.1839878 0.238462743,18.0919777 0.29,17 L0.29,17 L0.29,7 L0.29,7 C0.240491018,5.9146678 0.393080857,4.8295845 0.74,3.8 C1.28772956,2.49794409 2.3876413,1.50802353 3.74,1.1 C4.62577724,0.880296173 5.53801425,0.786042903 6.45,0.82 L16.53,0.82 C17.4419858,0.786042903 18.3542228,0.880296173 19.24,1.1 C20.5923587,1.50802353 21.6922704,2.49794409 22.24,3.8 C22.5864663,4.8296916 22.7390442,5.91468974 22.69,7 L22.69,17 C22.742008,18.0919992 22.5893857,19.1840962 22.24,20.22 L22.24,20.22 Z" id="_Path_3" fill="url(#linearGradient-1)" fill-rule="nonzero"></path>
                                <path d="M22.24,20.22 C21.9296134,20.9572964 21.4376727,21.6040436 20.81,22.1 C20.3406459,22.4719015 19.8042783,22.7502695 19.23,22.92 C18.3442228,23.1397038 17.4319858,23.2339571 16.52,23.2 L6.45,23.2 C5.53801425,23.2339571 4.62577724,23.1397038 3.74,22.92 C2.3876413,22.5119765 1.28772956,21.5220559 0.74,20.22 C0.391072859,19.1839878 0.238462743,18.0919777 0.29,17 L0.29,17 L0.29,7 L0.29,7 C0.240491018,5.9146678 0.393080857,4.8295845 0.74,3.8 C1.28772956,2.49794409 2.3876413,1.50802353 3.74,1.1 C4.62577724,0.880296173 5.53801425,0.786042903 6.45,0.82 L16.53,0.82 C17.4419858,0.786042903 18.3542228,0.880296173 19.24,1.1 C20.5923587,1.50802353 21.6922704,2.49794409 22.24,3.8 C22.5864663,4.8296916 22.7390442,5.91468974 22.69,7 L22.69,17 C22.742008,18.0919992 22.5893857,19.1840962 22.24,20.22 L22.24,20.22 Z" id="_Path_4"></path>
                                <g id="_Group_4" transform="translate(3.000000, 3.000000)" fill-rule="nonzero" fill="#FFFFFF">
                                    <path d="M10.11,10.68 C9.6687531,10.2787 9.08568223,10.0699462 8.49,10.1 C7.89431777,10.0699462 7.3112469,10.2787 6.87,10.68 C6.69321419,10.8522218 6.58636142,11.0837362 6.57,11.33 C6.51298258,11.8918906 6.51298258,12.4581094 6.57,13.02 C6.63,13.71 6.74,14.62 6.88,15.55 C6.9378394,15.9820186 7.02470254,16.4096525 7.14,16.83 C7.35467482,17.352343 7.88847903,17.6701806 8.45,17.61 C9.01152097,17.6701806 9.54532518,17.352343 9.76,16.83 C9.87553503,16.4097092 9.96240145,15.9820591 10.02,15.55 C10.17,14.62 10.28,13.7 10.33,13.02 C10.3870174,12.4581094 10.3870174,11.8918906 10.33,11.33 C10.3356299,11.0941665 10.2577055,10.8639354 10.11,10.68 Z M6.66,7.52 C6.66,8.53068109 7.47931891,9.35 8.49,9.35 C9.50068109,9.35 10.32,8.53068109 10.32,7.52 C10.32,6.50931891 9.50068109,5.69 8.49,5.69 C7.47931891,5.69 6.66,6.50931891 6.66,7.52 L6.66,7.52 Z M8.47,0.29 C4.62281324,0.283037339 1.33448288,3.05849208 0.695178229,6.85219529 C0.0558735736,10.6458985 2.25300305,14.3457482 5.89,15.6 C5.92388713,15.6096338 5.96033838,15.6024535 5.9880403,15.5806877 C6.01574223,15.5589219 6.03134278,15.5252043 6.03,15.49 C6.03,15.22 5.95,14.95 5.92,14.68 C5.90685975,14.5869201 5.84625355,14.5073745 5.76,14.47 C2.77522579,13.1718487 1.1110492,9.95733845 1.77402355,6.7707197 C2.4369979,3.58410096 5.24514608,1.30005556 8.5,1.30005556 C11.7548539,1.30005556 14.5630021,3.58410096 15.2259764,6.7707197 C15.8889508,9.95733845 14.2247742,13.1718487 11.24,14.47 C11.1537465,14.5073745 11.0931403,14.5869201 11.08,14.68 C11.08,14.95 11.01,15.22 10.97,15.49 C10.9686572,15.5252043 10.9842578,15.5589219 11.0119597,15.5806877 C11.0396616,15.6024535 11.0761129,15.6096338 11.11,15.6 C14.7405498,14.3323123 16.9233347,10.6265788 16.2718644,6.83665664 C15.6203941,3.04673446 12.3254676,0.28259453 8.48,0.3 L8.47,0.29 Z M8.33,3.9 C10.110918,3.8300366 11.7479651,4.87357877 12.4363081,6.51758238 C13.1246511,8.16158598 12.7194832,10.0602019 11.42,11.28 C11.349928,11.3476607 11.3133274,11.4428222 11.32,11.54 C11.3374116,11.8397474 11.3374116,12.1402526 11.32,12.44 C11.3158477,12.4796697 11.3356665,12.5180132 11.3704305,12.537568 C11.4051945,12.5571227 11.4482546,12.5541486 11.48,12.53 C13.389792,11.2270883 14.2274114,8.83158435 13.5456361,6.62249704 C12.8638608,4.41340972 10.8219006,2.90661052 8.51,2.90661052 C6.19809941,2.90661052 4.15613917,4.41340972 3.47436386,6.62249704 C2.79258856,8.83158435 3.63020803,11.2270883 5.54,12.53 C5.57174542,12.5541486 5.61480547,12.5571227 5.64956948,12.537568 C5.6843335,12.5180132 5.70415234,12.4796697 5.7,12.44 C5.68164043,12.1402809 5.68164043,11.8397191 5.7,11.54 C5.7066726,11.4428222 5.67007203,11.3476607 5.6,11.28 C4.34562008,10.1026864 3.92025641,8.28759997 4.52095207,6.67555125 C5.12164774,5.06350252 6.63106899,3.96937256 8.35,3.9 L8.33,3.9 Z" id="Shape"></path>
                                </g>
                            </g>
                        </g>
                    </g>
                    <path d="M132.13,23.76 L132.13,24.94 L132.13,25.94 C132.118372,26.6304574 132.05486,27.319064 131.94,28 C131.833615,28.6431956 131.631366,29.2667984 131.34,29.85 C131.040903,30.4331048 130.652932,30.9661422 130.19,31.43 C129.729737,31.8900388 129.199918,32.2747484 128.62,32.57 C128.033925,32.8671588 127.407155,33.076082 126.76,33.19 C126.098294,33.2961462 125.430025,33.3562904 124.76,33.37 L8.1,33.37 C7.39579668,33.3516035 6.69390157,33.281414 6,33.16 C5.35259014,33.0470889 4.72567457,32.838117 4.14,32.54 C2.97113948,31.9401678 2.0198322,30.9888605 1.42,29.82 C1.14620617,29.2436439 0.957570705,28.6305786 0.86,28 C0.747657458,27.3222761 0.687480842,26.6369313 0.68,25.95 L0.68,25.27 L0.68,8.79 L0.68,8.1 C0.687441525,7.41306678 0.747618405,6.72771897 0.86,6.05 C0.96767311,5.40261406 1.17336732,4.77541533 1.47,4.19 C1.766249,3.60812987 2.15458885,3.07796155 2.62,2.62 C3.07996789,2.15691527 3.60974276,1.76886361 4.19,1.47 C4.76045345,1.17971578 5.3702093,0.974217953 6,0.86 C6.69474929,0.749485312 7.39657762,0.689328599 8.1,0.68 L124.68,0.68 C125.366768,0.690724298 126.051872,0.750879805 126.73,0.86 C127.376802,0.970039301 128.003654,1.17561951 128.59,1.47 C129.170534,1.76424405 129.700504,2.14906319 130.16,2.61 C130.622338,3.07060948 131.0103,3.60026076 131.31,4.18 C131.608182,4.76829891 131.81393,5.39903341 131.92,6.05 C132.032627,6.71106111 132.096134,7.3795566 132.11,8.05 L132.11,9.05 L132.11,10.21 L132.11,23.76 L132.13,23.76 Z" id="_Path_5" fill="#FFFFFF" fill-rule="nonzero"></path>
                </g>
            </g>
            <path d="M32.3120117,11.2553711 C32.3867188,12.3759766 33.3183594,13.1054688 34.6630859,13.1054688 C36.1220703,13.1054688 37.0361328,12.3803711 37.0361328,11.2202148 C37.0361328,10.3105469 36.5043945,9.80517578 35.1904297,9.47558594 L34.5268555,9.29980469 C33.6655273,9.07568359 33.3139648,8.79003906 33.3139648,8.31103516 C33.3139648,7.69140625 33.8852539,7.26513672 34.7070312,7.26513672 C35.5332031,7.26513672 36.0825195,7.68261719 36.152832,8.36376953 L36.9438477,8.36376953 C36.9086914,7.30029297 35.9946289,6.55322266 34.7333984,6.55322266 C33.4150391,6.55322266 32.4921875,7.29150391 32.4921875,8.34619141 C32.4921875,9.20751953 33.0107422,9.72167969 34.1796875,10.0205078 L34.9926758,10.2314453 C35.8452148,10.4511719 36.21875,10.7807617 36.21875,11.3168945 C36.21875,11.940918 35.5947266,12.3935547 34.737793,12.3935547 C33.8325195,12.3935547 33.1821289,11.940918 33.1074219,11.2553711 L32.3120117,11.2553711 Z M41.7250977,8.26269531 L40.9604492,8.26269531 L40.9604492,11.0136719 C40.9604492,11.8266602 40.4902344,12.362793 39.7124023,12.362793 C38.9697266,12.362793 38.6049805,11.9453125 38.6049805,11.1674805 L38.6049805,8.26269531 L37.840332,8.26269531 L37.840332,11.2993164 C37.840332,12.3759766 38.4423828,13.0439453 39.4794922,13.0439453 C40.2045898,13.0439453 40.6923828,12.7626953 40.9868164,12.2177734 L41.0043945,12.2177734 L41.0043945,13 L41.7250977,13 L41.7250977,8.26269531 Z M45.0913086,13.0439453 C44.4013672,13.0439453 43.8564453,12.7451172 43.5488281,12.2001953 L43.53125,12.2001953 L43.53125,13 L42.8061523,13 L42.8061523,6.38183594 L43.5708008,6.38183594 L43.5708008,9.03173828 L43.5883789,9.03173828 C43.887207,8.51318359 44.4365234,8.21875 45.1088867,8.21875 C46.2998047,8.21875 47.112793,9.18554688 47.112793,10.6313477 C47.112793,12.081543 46.2998047,13.0439453 45.0913086,13.0439453 Z M44.9550781,8.89990234 C44.1289062,8.89990234 43.5664062,9.60742188 43.5664062,10.6313477 C43.5664062,11.659668 44.1289062,12.362793 44.9550781,12.362793 C45.7856445,12.362793 46.3305664,11.6860352 46.3305664,10.6313477 C46.3305664,9.58105469 45.7856445,8.89990234 44.9550781,8.89990234 Z M47.8378906,9.58544922 C47.8378906,10.2182617 48.2421875,10.6357422 49.0727539,10.8510742 L49.9033203,11.0664062 C50.4438477,11.2070312 50.6416016,11.3828125 50.6416016,11.7167969 C50.6416016,12.1430664 50.2373047,12.4111328 49.5913086,12.4111328 C48.9453125,12.4111328 48.5541992,12.1518555 48.4750977,11.668457 L47.7060547,11.668457 C47.7807617,12.4902344 48.519043,13.0439453 49.5385742,13.0439453 C50.6328125,13.0439453 51.4106445,12.4726562 51.4106445,11.6640625 C51.4106445,10.9741211 51.0678711,10.6401367 50.1098633,10.3984375 L49.3891602,10.2182617 C48.8442383,10.0820312 48.5893555,9.86669922 48.5893555,9.54589844 C48.5893555,9.1328125 48.9804688,8.85595703 49.5649414,8.85595703 C50.1450195,8.85595703 50.5317383,9.1328125 50.5800781,9.57666016 L51.3139648,9.57666016 C51.2832031,8.79882812 50.5537109,8.22314453 49.5913086,8.22314453 C48.5629883,8.22314453 47.8378906,8.78564453 47.8378906,9.58544922 Z M56.1567383,9.80517578 C56.0600586,8.97460938 55.34375,8.21875 54.1704102,8.21875 C52.8740234,8.21875 52.0083008,9.17675781 52.0083008,10.6313477 C52.0083008,12.1210938 52.878418,13.0439453 54.1791992,13.0439453 C55.2602539,13.0439453 56.0380859,12.4067383 56.1655273,11.4838867 L55.4140625,11.4838867 C55.2822266,12.0551758 54.8427734,12.362793 54.1835938,12.362793 C53.3574219,12.362793 52.7861328,11.7080078 52.7861328,10.6313477 C52.7861328,9.58544922 53.3486328,8.89990234 54.1748047,8.89990234 C54.8867188,8.89990234 55.3085938,9.29980469 55.4052734,9.80517578 L56.1567383,9.80517578 Z M56.8994141,13 L57.6640625,13 L57.6640625,10.0688477 C57.6640625,9.40087891 58.0683594,8.95263672 58.6835938,8.95263672 C58.8725586,8.95263672 59.0395508,8.97460938 59.1010742,8.99658203 L59.1010742,8.24511719 C59.0351562,8.23193359 58.9208984,8.21875 58.784668,8.21875 C58.230957,8.21875 57.7783203,8.53515625 57.6376953,9.03173828 L57.6201172,9.03173828 L57.6201172,8.26269531 L56.8994141,8.26269531 L56.8994141,13 Z M59.7954102,13 L60.5600586,13 L60.5600586,8.26269531 L59.7954102,8.26269531 L59.7954102,13 Z M60.1777344,7.49804688 C60.4458008,7.49804688 60.6611328,7.27832031 60.6611328,7.01464844 C60.6611328,6.74658203 60.4458008,6.53125 60.1777344,6.53125 C59.9140625,6.53125 59.6943359,6.74658203 59.6943359,7.01464844 C59.6943359,7.27832031 59.9140625,7.49804688 60.1777344,7.49804688 Z M63.9702148,13.0439453 C63.2802734,13.0439453 62.7353516,12.7451172 62.4277344,12.2001953 L62.4101562,12.2001953 L62.4101562,13 L61.6850586,13 L61.6850586,6.38183594 L62.449707,6.38183594 L62.449707,9.03173828 L62.4672852,9.03173828 C62.7661133,8.51318359 63.3154297,8.21875 63.987793,8.21875 C65.1787109,8.21875 65.9916992,9.18554688 65.9916992,10.6313477 C65.9916992,12.081543 65.1787109,13.0439453 63.9702148,13.0439453 Z M63.8339844,8.89990234 C63.0078125,8.89990234 62.4453125,9.60742188 62.4453125,10.6313477 C62.4453125,11.659668 63.0078125,12.362793 63.8339844,12.362793 C64.6645508,12.362793 65.2094727,11.6860352 65.2094727,10.6313477 C65.2094727,9.58105469 64.6645508,8.89990234 63.8339844,8.89990234 Z M68.6855469,8.89111328 C67.9428711,8.89111328 67.4067383,9.43164062 67.3540039,10.2314453 L69.9599609,10.2314453 C69.9423828,9.42724609 69.4326172,8.89111328 68.6855469,8.89111328 Z M69.9423828,11.6464844 L70.6982422,11.6464844 C70.5664062,12.4594727 69.7446289,13.0439453 68.7338867,13.0439453 C67.4023438,13.0439453 66.5629883,12.1166992 66.5629883,10.6489258 C66.5629883,9.18115234 67.4067383,8.21875 68.6987305,8.21875 C69.9643555,8.21875 70.7553711,9.11083984 70.7553711,10.543457 L70.7553711,10.8422852 L67.3540039,10.8422852 L67.3540039,10.8862305 C67.3540039,11.7871094 67.9077148,12.371582 68.7514648,12.371582 C69.3447266,12.371582 69.8061523,12.090332 69.9423828,11.6464844 Z M77.5756836,8.26269531 L76.7802734,8.26269531 L75.4487305,12.1738281 L75.4311523,12.1738281 L74.1040039,8.26269531 L73.3041992,8.26269531 L75.0532227,13 L75.8266602,13 L77.5756836,8.26269531 Z M78.2480469,13 L79.0126953,13 L79.0126953,8.26269531 L78.2480469,8.26269531 L78.2480469,13 Z M78.6303711,7.49804688 C78.8984375,7.49804688 79.1137695,7.27832031 79.1137695,7.01464844 C79.1137695,6.74658203 78.8984375,6.53125 78.6303711,6.53125 C78.3666992,6.53125 78.1469727,6.74658203 78.1469727,7.01464844 C78.1469727,7.27832031 78.3666992,7.49804688 78.6303711,7.49804688 Z M81.640625,12.3803711 C82.4140625,12.3803711 82.980957,11.8793945 82.980957,11.1982422 L82.980957,10.815918 L81.7416992,10.8950195 C81.0297852,10.9389648 80.6606445,11.1982422 80.6606445,11.6552734 C80.6606445,12.0947266 81.0429688,12.3803711 81.640625,12.3803711 Z M81.4780273,13.0439453 C80.515625,13.0439453 79.878418,12.4902344 79.878418,11.6508789 C79.878418,10.8378906 80.5024414,10.3588867 81.6538086,10.2885742 L82.980957,10.2094727 L82.980957,9.81396484 C82.980957,9.22509766 82.5942383,8.89990234 81.8955078,8.89990234 C81.3461914,8.89990234 80.9375,9.18115234 80.8452148,9.62939453 L80.1113281,9.62939453 C80.1333008,8.82958984 80.9111328,8.21875 81.9042969,8.21875 C83.0249023,8.21875 83.7456055,8.81640625 83.7456055,9.74804688 L83.7456055,13 L83.0205078,13 L83.0205078,12.1782227 L83.0029297,12.1782227 C82.7348633,12.7055664 82.1416016,13.0439453 81.4780273,13.0439453 Z" id="Subscribe-via" fill="#777878"></path>
            <path d="M33.2661133,18.0336914 L33.2661133,21.328125 L35.3100586,21.328125 C36.4082031,21.328125 37.0429688,20.7250977 37.0429688,19.6777344 C37.0429688,18.6557617 36.3701172,18.0336914 35.2719727,18.0336914 L33.2661133,18.0336914 Z M33.2661133,22.4770508 L33.2661133,26 L31.8442383,26 L31.8442383,16.840332 L35.4433594,16.840332 C37.3286133,16.840332 38.5029297,17.9321289 38.5029297,19.6396484 C38.5029297,20.8774414 37.8427734,21.8803711 36.7255859,22.2548828 L38.7822266,26 L37.1381836,26 L35.2719727,22.4770508 L33.2661133,22.4770508 Z M39.4677734,23.4482422 C39.5566406,25.1049805 40.9277344,26.1523438 42.9589844,26.1523438 C45.1298828,26.1523438 46.4946289,25.0795898 46.4946289,23.3657227 C46.4946289,22.0263672 45.7138672,21.2709961 43.8349609,20.8266602 L42.8256836,20.5791016 C41.6450195,20.2871094 41.1625977,19.90625 41.1625977,19.2587891 C41.1625977,18.4462891 41.9179688,17.8876953 43.0224609,17.8876953 C44.1269531,17.8876953 44.8823242,18.4399414 44.9648438,19.3540039 L46.3486328,19.3540039 C46.3041992,17.7734375 44.9775391,16.6879883 43.0415039,16.6879883 C41.0864258,16.6879883 39.7089844,17.7734375 39.7089844,19.3540039 C39.7089844,20.6298828 40.4897461,21.4169922 42.171875,21.8232422 L43.3588867,22.1088867 C44.5458984,22.4008789 45.0473633,22.8261719 45.0473633,23.5371094 C45.0473633,24.355957 44.2158203,24.9526367 43.0605469,24.9526367 C41.8544922,24.9526367 40.972168,24.355957 40.8706055,23.4482422 L39.4677734,23.4482422 Z M47.3642578,23.4482422 C47.453125,25.1049805 48.8242188,26.1523438 50.8554688,26.1523438 C53.0263672,26.1523438 54.3911133,25.0795898 54.3911133,23.3657227 C54.3911133,22.0263672 53.6103516,21.2709961 51.7314453,20.8266602 L50.722168,20.5791016 C49.5415039,20.2871094 49.059082,19.90625 49.059082,19.2587891 C49.059082,18.4462891 49.8144531,17.8876953 50.9189453,17.8876953 C52.0234375,17.8876953 52.7788086,18.4399414 52.8613281,19.3540039 L54.2451172,19.3540039 C54.2006836,17.7734375 52.8740234,16.6879883 50.9379883,16.6879883 C48.9829102,16.6879883 47.6054688,17.7734375 47.6054688,19.3540039 C47.6054688,20.6298828 48.3862305,21.4169922 50.0683594,21.8232422 L51.2553711,22.1088867 C52.4423828,22.4008789 52.9438477,22.8261719 52.9438477,23.5371094 C52.9438477,24.355957 52.1123047,24.9526367 50.9570312,24.9526367 C49.7509766,24.9526367 48.8686523,24.355957 48.7670898,23.4482422 L47.3642578,23.4482422 Z M60.0849609,26 L60.0849609,22.1660156 L64.0205078,22.1660156 L64.0205078,20.9663086 L60.0849609,20.9663086 L60.0849609,18.0654297 L64.3823242,18.0654297 L64.3823242,16.840332 L58.6630859,16.840332 L58.6630859,26 L60.0849609,26 Z M68.2226562,20.1411133 C67.2324219,20.1411133 66.5151367,20.8647461 66.4389648,21.9248047 L69.9365234,21.9248047 C69.9047852,20.8520508 69.2255859,20.1411133 68.2226562,20.1411133 Z M69.9301758,23.9814453 L71.2441406,23.9814453 C71.0473633,25.2192383 69.8349609,26.0825195 68.2861328,26.0825195 C66.2866211,26.0825195 65.0424805,24.7368164 65.0424805,22.5786133 C65.0424805,20.4204102 66.2993164,19.0175781 68.2290039,19.0175781 C70.1206055,19.0175781 71.3139648,20.331543 71.3139648,22.4199219 L71.3139648,22.9023438 L66.4326172,22.9023438 L66.4326172,22.9848633 C66.4326172,24.1782227 67.1816406,24.965332 68.3115234,24.965332 C69.1113281,24.965332 69.7397461,24.5844727 69.9301758,23.9814453 Z M75.2875977,20.1411133 C74.2973633,20.1411133 73.5800781,20.8647461 73.5039062,21.9248047 L77.0014648,21.9248047 C76.9697266,20.8520508 76.2905273,20.1411133 75.2875977,20.1411133 Z M76.9951172,23.9814453 L78.309082,23.9814453 C78.1123047,25.2192383 76.8999023,26.0825195 75.3510742,26.0825195 C73.3515625,26.0825195 72.1074219,24.7368164 72.1074219,22.5786133 C72.1074219,20.4204102 73.3642578,19.0175781 75.2939453,19.0175781 C77.1855469,19.0175781 78.3789062,20.331543 78.3789062,22.4199219 L78.3789062,22.9023438 L73.4975586,22.9023438 L73.4975586,22.9848633 C73.4975586,24.1782227 74.246582,24.965332 75.3764648,24.965332 C76.1762695,24.965332 76.8046875,24.5844727 76.9951172,23.9814453 Z M82.0795898,26.0698242 C80.3530273,26.0698242 79.1723633,24.6796875 79.1723633,22.546875 C79.1723633,20.4267578 80.3530273,19.0366211 82.0668945,19.0366211 C83.0571289,19.0366211 83.8442383,19.4873047 84.237793,20.2490234 L84.2695312,20.2490234 L84.2695312,16.4277344 L85.640625,16.4277344 L85.640625,26 L84.3076172,26 L84.3076172,24.8320312 L84.2822266,24.8320312 C83.8759766,25.612793 83.0888672,26.0698242 82.0795898,26.0698242 Z M82.4287109,20.2045898 C81.3178711,20.2045898 80.581543,21.1313477 80.581543,22.5532227 C80.581543,23.9814453 81.3115234,24.9018555 82.4287109,24.9018555 C83.5332031,24.9018555 84.2758789,23.9624023 84.2758789,22.5532227 C84.2758789,21.1503906 83.5332031,20.2045898 82.4287109,20.2045898 Z" id="RSS-Feed" fill="#000000"></path>
            <g id="noun_900774_cc" transform="translate(6.000000, 6.000000)" fill-rule="nonzero" fill="#000000">
                <path d="M17.8721684,17.5566502 L15.3795368,17.5566502 C14.9059368,10.9729064 11.3165474,7.43719212 4.53658947,6.97389163 L4.53658947,4.58423645 C11.1669895,4.26724138 17.9968,9.97315271 17.8721684,17.5566502 Z M9.24766316,12.9480296 C10.5438316,14.2160099 10.7930947,15.8497537 10.8429474,17.5566502 L13.3854316,17.5566502 C13.5349895,12.4359606 9.57170526,8.75394089 4.53658947,8.90024631 C4.53658947,8.94901478 4.51166316,9.02216749 4.51166316,9.07093596 L4.51166316,11.3874384 C6.28143158,11.4605911 7.95149474,11.6800493 9.24766316,12.9480296 Z M8.59957895,15.5571429 C8.59957895,14.4598522 7.70223158,13.5820197 6.55562105,13.6064039 C5.45886316,13.6064039 4.56151579,14.5086207 4.56151579,15.5815271 C4.58644211,16.6544335 5.48378947,17.532266 6.58054737,17.532266 C7.72715789,17.5078818 8.59957895,16.6300493 8.59957895,15.5571429 Z M22.4336842,15.776601 L22.4336842,6.16921182 C22.4336842,2.75541872 19.6170105,0 16.1273263,0 L6.30635789,0 C2.81667368,0 0,2.75541872 0,6.16921182 L0,15.776601 C0,19.1903941 2.81667368,21.9458128 6.30635789,21.9458128 L16.1273263,21.9458128 C19.6170105,21.9458128 22.4336842,19.1903941 22.4336842,15.776601 Z M16.1273263,1.36551724 C18.8442947,1.36551724 21.0378105,3.51133005 21.0378105,6.16921182 L21.0378105,15.776601 C21.0378105,18.4344828 18.8442947,20.5802956 16.1273263,20.5802956 L6.30635789,20.5802956 C3.58938947,20.5802956 1.39587368,18.4344828 1.39587368,15.776601 L1.39587368,6.16921182 C1.39587368,3.51133005 3.58938947,1.36551724 6.30635789,1.36551724 L16.1273263,1.36551724 L16.1273263,1.36551724 Z" id="Shape"></path>
            </g>
        </g>
    </g>
</svg>